<svg width="194" height="49" viewBox="0 0 194 49" fill="none" xmlns="http://www.w3.org/2000/svg">
<rect x="0.5" y="0.859985" width="193" height="47" rx="7.5" fill="white"/>
<rect x="0.5" y="0.859985" width="193" height="47" rx="7.5" stroke="black"/>
<g clip-path="url(#clip0_2499_333)">
<path d="M82.8688 26.8766L81.9465 29.6692H80.7609L83.7774 20.7904H85.1607L88.1906 29.6692H86.9654L86.0171 26.8766H82.8688ZM85.78 25.981L84.9106 23.4254C84.713 22.8458 84.5813 22.319 84.4496 21.8052H84.4232C84.2915 22.332 84.1464 22.8722 83.9753 23.4124L83.1058 25.981H85.78Z" fill="black"/>
<path d="M88.3057 29.7515H86.9065L85.9581 26.9587H82.9282L82.006 29.7515H80.6459L83.7185 20.7083H85.2196L88.3055 29.7515H88.3057ZM87.0246 29.587H88.0756L85.102 20.873H83.8366L80.8758 29.587H81.8868L82.809 26.7942H86.076L87.0243 29.587H87.0246ZM85.8949 26.0631H82.9911L83.8974 23.3857C84.0451 22.9199 84.1869 22.4109 84.3435 21.7849L84.3589 21.7225H84.5133L84.5533 21.8782C84.6765 22.3594 84.8039 22.8572 84.9884 23.3985L85.8949 26.0628V26.0631ZM83.2207 25.8986H85.6651L84.8327 23.4518C84.6674 22.9673 84.548 22.5192 84.4368 22.0867C84.3051 22.5991 84.1819 23.0335 84.0539 23.4371L83.2207 25.8986Z" fill="black"/>
<path d="M89.4157 25.375C89.4157 24.5583 89.3893 23.8995 89.3629 23.2937H90.4035L90.4563 24.3871H90.4827C90.957 23.6099 91.7078 23.1489 92.7485 23.1489C94.2898 23.1489 95.4488 24.453 95.4488 26.3895C95.4488 28.6816 94.0525 29.8145 92.5506 29.8145C91.7076 29.8145 90.9698 29.4457 90.5877 28.8133H90.5614V32.2778H89.4154V25.375H89.4157ZM90.5616 27.0741C90.5616 27.2453 90.588 27.4034 90.6144 27.5485C90.825 28.3521 91.5233 28.9053 92.3533 28.9053C93.5784 28.9053 94.2898 27.9041 94.2898 26.442C94.2898 25.1643 93.6179 24.0709 92.3928 24.0709C91.6025 24.0709 90.8648 24.6375 90.6408 25.5067C90.6013 25.6514 90.5619 25.8229 90.5619 25.981V27.0744L90.5616 27.0741Z" fill="black"/>
<path d="M90.644 32.3599H89.3333V25.375C89.3333 24.5732 89.3085 23.9347 89.2808 23.2972L89.277 23.2113H90.4822L90.5283 24.1682C91.041 23.4462 91.8043 23.0663 92.7485 23.0663C93.5267 23.0663 94.2338 23.3942 94.7393 23.9893C95.2499 24.5906 95.5312 25.443 95.5312 26.3892C95.5312 27.4781 95.2171 28.387 94.6228 29.0176C94.0888 29.5844 93.3529 29.8963 92.5506 29.8963C91.7484 29.8963 91.0615 29.5799 90.6437 29.04V32.3599H90.644ZM89.4981 32.1954H90.4795V28.7309H90.6347L90.6587 28.7707C91.0223 29.3727 91.7297 29.7321 92.5509 29.7321C93.9525 29.7321 95.3667 28.6984 95.3667 26.3895C95.3667 25.4821 95.0993 24.6679 94.614 24.0962C94.1402 23.5385 93.4777 23.2311 92.7485 23.2311C91.7772 23.2311 91.0383 23.6345 90.5528 24.4298L90.5288 24.4693H90.3779L90.3251 23.3758H89.449C89.4754 23.9869 89.4981 24.6058 89.4981 25.375V32.1954ZM92.3533 28.9877C91.4881 28.9877 90.7573 28.4177 90.535 27.5695L90.5336 27.5634C90.5062 27.413 90.4795 27.2517 90.4795 27.0744V25.981C90.4795 25.8077 90.5232 25.6251 90.5614 25.4851C90.7883 24.6044 91.5415 23.9885 92.3928 23.9885C92.9983 23.9885 93.5081 24.2442 93.8669 24.7281C94.1928 25.1675 94.3722 25.7762 94.3722 26.442C94.3722 27.1891 94.1904 27.822 93.8464 28.2721C93.4886 28.7403 92.9722 28.9877 92.3533 28.9877ZM90.6949 27.5306C90.8992 28.3038 91.5652 28.8229 92.3533 28.8229C93.4971 28.8229 94.2074 27.9105 94.2074 26.442C94.2074 25.8114 94.0394 25.2377 93.7344 24.8263C93.4078 24.3858 92.9439 24.153 92.3928 24.153C91.6166 24.153 90.9288 24.718 90.7205 25.5272C90.6848 25.6584 90.644 25.8272 90.644 25.981V27.0744C90.644 27.2368 90.6691 27.3888 90.6949 27.5309V27.5306Z" fill="black"/>
<path d="M96.9107 25.375C96.9107 24.5583 96.8843 23.8995 96.8579 23.2937H97.8985L97.9513 24.3871H97.9777C98.452 23.6099 99.2028 23.1489 100.243 23.1489C101.785 23.1489 102.944 24.453 102.944 26.3895C102.944 28.6816 101.548 29.8145 100.046 29.8145C99.2028 29.8145 98.4651 29.4457 98.083 28.8133H98.0566V32.2778H96.9107V25.375ZM98.0569 27.0741C98.0569 27.2453 98.0833 27.4034 98.1097 27.5485C98.3203 28.3521 99.0186 28.9053 99.8486 28.9053C101.074 28.9053 101.785 27.9041 101.785 26.442C101.785 25.1643 101.113 24.0709 99.888 24.0709C99.0978 24.0709 98.36 24.6375 98.1361 25.5067C98.0966 25.6514 98.0571 25.8229 98.0571 25.981V27.0744L98.0569 27.0741Z" fill="black"/>
<path d="M98.1393 32.3599H96.8286V25.375C96.8286 24.5732 96.8038 23.9347 96.776 23.2972L96.7723 23.2113H97.9774L98.0236 24.1682C98.5363 23.4462 99.2996 23.0663 100.244 23.0663C101.022 23.0663 101.729 23.3942 102.235 23.9893C102.745 24.5906 103.026 25.443 103.026 26.3892C103.026 27.4781 102.712 28.387 102.118 29.0176C101.584 29.5844 100.848 29.8963 100.046 29.8963C99.2436 29.8963 98.5568 29.5799 98.139 29.04V32.3599H98.1393ZM96.9931 32.1954H97.9745V28.7309H98.1297L98.1537 28.7707C98.5174 29.3727 99.2247 29.7321 100.046 29.7321C101.448 29.7321 102.862 28.6984 102.862 26.3895C102.862 25.4821 102.594 24.6679 102.109 24.0962C101.635 23.5385 100.973 23.2311 100.243 23.2311C99.2722 23.2311 98.5333 23.6345 98.0478 24.4298L98.0238 24.4693H97.8729L97.8201 23.3758H96.944C96.9704 23.9869 96.9931 24.6058 96.9931 25.375V32.1954ZM99.8483 28.9877C98.9831 28.9877 98.2523 28.4177 98.03 27.5695L98.0286 27.5634C98.0012 27.413 97.9745 27.2517 97.9745 27.0744V25.981C97.9745 25.8077 98.0182 25.6251 98.0564 25.4851C98.2833 24.6044 99.0365 23.9885 99.8878 23.9885C100.493 23.9885 101.003 24.2442 101.362 24.7281C101.688 25.1675 101.867 25.7762 101.867 26.442C101.867 27.1891 101.685 27.822 101.341 28.2721C100.984 28.7403 100.467 28.9877 99.8483 28.9877ZM98.1899 27.5306C98.3942 28.3038 99.0602 28.8229 99.8483 28.8229C100.992 28.8229 101.702 27.9105 101.702 26.442C101.702 25.8114 101.534 25.2377 101.229 24.8263C100.903 24.3858 100.439 24.153 99.8878 24.153C99.1117 24.153 98.4238 24.718 98.2155 25.5272C98.1798 25.6584 98.139 25.8272 98.139 25.981V27.0744C98.139 27.2368 98.1641 27.3888 98.1899 27.5309V27.5306Z" fill="black"/>
<path d="M107.08 28.2729C107.594 28.5891 108.345 28.8525 109.135 28.8525C110.307 28.8525 110.992 28.2334 110.992 27.3376C110.992 26.5076 110.518 26.0335 109.319 25.5723C107.87 25.0585 106.974 24.3077 106.974 23.0562C106.974 21.6729 108.12 20.6456 109.846 20.6456C110.755 20.6456 111.414 20.8563 111.809 21.0802L111.493 22.0155C111.203 21.8574 110.61 21.594 109.807 21.594C108.595 21.594 108.134 22.3184 108.134 22.9245C108.134 23.7544 108.674 24.1626 109.899 24.637C111.401 25.2166 112.165 25.941 112.165 27.2453C112.165 28.6152 111.15 29.8009 109.056 29.8009C108.199 29.8009 107.264 29.5505 106.79 29.2346L107.08 28.2729Z" fill="black"/>
<path d="M109.056 29.8833C108.221 29.8833 107.249 29.6393 106.745 29.3031L106.694 29.2692L107.032 28.1468L107.123 28.2028C107.701 28.5582 108.453 28.7701 109.135 28.7701C110.23 28.7701 110.91 28.2212 110.91 27.3376C110.91 26.5612 110.471 26.1034 109.29 25.6493C107.655 25.0697 106.892 24.2456 106.892 23.0564C106.892 22.3555 107.183 21.7209 107.71 21.2698C108.25 20.8077 108.989 20.5632 109.846 20.5632C110.905 20.5632 111.556 20.8424 111.85 21.0088L111.909 21.0424L111.54 22.135L111.454 22.088C111.109 21.9003 110.544 21.6766 109.807 21.6766C109.015 21.6766 108.216 22.0627 108.216 22.9247C108.216 23.6611 108.632 24.0587 109.929 24.5604C110.737 24.8724 111.286 25.2073 111.656 25.6144C112.054 26.0519 112.247 26.5854 112.247 27.2456C112.247 27.9745 111.964 28.6323 111.451 29.0981C110.885 29.6119 110.056 29.8835 109.056 29.8835L109.056 29.8833ZM106.887 29.1989C107.38 29.502 108.277 29.7188 109.056 29.7188C110.015 29.7188 110.805 29.462 111.341 28.9762C111.819 28.5422 112.083 27.9276 112.083 27.2456C112.083 26.0543 111.441 25.3208 109.869 24.714C108.69 24.2575 108.051 23.8374 108.051 22.9247C108.051 22.569 108.2 22.2222 108.459 21.9729C108.772 21.6713 109.238 21.5119 109.807 21.5119C110.52 21.5119 111.08 21.7121 111.446 21.8979L111.709 21.1197C111.406 20.96 110.801 20.7283 109.846 20.7283C108.204 20.7283 107.057 21.6857 107.057 23.0567C107.057 24.1664 107.785 24.9412 109.347 25.4952C109.979 25.7384 110.397 25.9813 110.665 26.2601C110.945 26.5518 111.075 26.8942 111.075 27.3381C111.075 28.3083 110.313 28.9354 109.135 28.9354C108.448 28.9354 107.724 28.7405 107.128 28.3982L106.887 29.1994V29.1989Z" fill="black"/>
<path d="M115.05 21.4625V23.2937H116.709V24.1762H115.05V27.6143C115.05 28.4046 115.274 28.8525 115.919 28.8525C116.222 28.8525 116.446 28.813 116.591 28.7736L116.644 29.643C116.42 29.7353 116.064 29.8011 115.616 29.8011C115.076 29.8011 114.641 29.63 114.365 29.3137C114.035 28.9711 113.917 28.4048 113.917 27.654V24.1765H112.929V23.294H113.917V21.7659L115.05 21.4631V21.4625Z" fill="black"/>
<path d="M115.616 29.8833C115.052 29.8833 114.599 29.7054 114.304 29.3692C113.984 29.0349 113.834 28.4899 113.834 27.6538V24.2584H112.846V23.2111H113.834V21.7022L115.132 21.3551V23.2111H116.792V24.2584H115.132V27.6143C115.132 28.4246 115.367 28.7704 115.919 28.7704C116.225 28.7704 116.442 28.7291 116.569 28.6941L116.667 28.6675L116.729 29.6966L116.675 29.719C116.418 29.8249 116.042 29.8833 115.616 29.8833H115.616ZM113.011 24.0938H113.999V27.6538C113.999 28.4457 114.134 28.9552 114.424 29.2565L114.427 29.2594C114.69 29.5599 115.101 29.7185 115.616 29.7185C115.985 29.7185 116.324 29.6711 116.558 29.5876L116.515 28.8768C116.375 28.9069 116.176 28.9349 115.919 28.9349C115.066 28.9349 114.967 28.1812 114.967 27.6143V24.0938H116.627V23.3758H114.967V21.5697L113.999 21.8286V23.3758H113.011V24.0938Z" fill="black"/>
<path d="M123.704 26.4287C123.704 28.7867 122.071 29.8142 120.529 29.8142C118.804 29.8142 117.473 28.5496 117.473 26.5343C117.473 24.4002 118.869 23.1487 120.635 23.1487C122.4 23.1487 123.704 24.4791 123.704 26.4287ZM118.646 26.4945C118.646 27.8908 119.449 28.9448 120.582 28.9448C121.715 28.9448 122.519 27.9042 122.519 26.4681C122.519 25.388 121.979 24.0179 120.609 24.0179C119.239 24.0179 118.646 25.2825 118.646 26.4945Z" fill="black"/>
<path d="M120.529 29.8966C118.681 29.8966 117.391 28.5139 117.391 26.5342C117.391 25.4928 117.717 24.6108 118.334 23.9835C118.915 23.3921 119.732 23.0663 120.635 23.0663C121.538 23.0663 122.345 23.3897 122.917 24.0013C123.486 24.6106 123.787 25.4499 123.787 26.4287C123.787 27.5322 123.428 28.4443 122.751 29.0664C122.167 29.6017 121.379 29.8966 120.53 29.8966H120.529ZM120.635 23.2311C119.776 23.2311 119.001 23.5393 118.451 24.0989C117.865 24.6948 117.556 25.5368 117.556 26.5342C117.556 27.5317 117.852 28.2915 118.414 28.8731C118.948 29.4271 119.7 29.7321 120.529 29.7321C121.359 29.7321 122.086 29.4527 122.639 28.9453C123.282 28.3553 123.622 27.485 123.622 26.4289C123.622 24.5162 122.421 23.2311 120.635 23.2311ZM120.582 29.0272C120.012 29.0272 119.494 28.7669 119.124 28.2939C118.763 27.8314 118.563 27.1923 118.563 26.4945C118.563 25.2209 119.196 23.9357 120.609 23.9357C121.255 23.9357 121.787 24.2325 122.147 24.7937C122.436 25.2438 122.601 25.8544 122.601 26.4684C122.601 27.1789 122.398 27.8279 122.03 28.2961C121.659 28.7677 121.145 29.0274 120.582 29.0274V29.0272ZM120.608 24.1005C119.309 24.1005 118.728 25.303 118.728 26.4948C118.728 27.8668 119.508 28.8627 120.582 28.8627C121.093 28.8627 121.562 28.6254 121.9 28.1942C122.246 27.7551 122.436 27.1421 122.436 26.4684C122.436 25.885 122.28 25.307 122.008 24.8825C121.779 24.5258 121.35 24.1005 120.608 24.1005Z" fill="black"/>
<path d="M125.166 25.2827C125.166 24.5319 125.153 23.8864 125.113 23.2935H126.127L126.167 24.545H126.22C126.509 23.6886 127.208 23.1487 127.985 23.1487C128.117 23.1487 128.209 23.1617 128.314 23.1881V24.2816C128.196 24.2552 128.077 24.2421 127.919 24.2421C127.102 24.2421 126.523 24.8612 126.365 25.7307C126.338 25.8888 126.312 26.0733 126.312 26.2708V29.6695H125.166V25.2827Z" fill="black"/>
<path d="M126.395 29.7516H125.084V25.2824C125.084 24.4546 125.068 23.843 125.031 23.2988L125.025 23.2111H126.208L126.241 24.2701C126.582 23.5307 127.244 23.0663 127.985 23.0663C128.116 23.0663 128.214 23.078 128.335 23.1084L128.397 23.1239V24.3842L128.297 24.3621C128.178 24.3357 128.065 24.3245 127.919 24.3245C127.549 24.3245 127.214 24.461 126.953 24.7191C126.697 24.9713 126.522 25.3264 126.446 25.7456C126.42 25.8973 126.394 26.0796 126.394 26.2711V29.7521L126.395 29.7516ZM125.248 29.5871H126.23V26.2708C126.23 26.0674 126.257 25.8767 126.284 25.717C126.456 24.7705 127.098 24.1597 127.919 24.1597C128.036 24.1597 128.136 24.1666 128.232 24.1821V23.254C128.152 23.2377 128.078 23.2311 127.985 23.2311C127.236 23.2311 126.573 23.7571 126.298 24.5714L126.279 24.6274H126.088L126.048 23.3758H125.201C125.234 23.9019 125.249 24.4951 125.249 25.2827V29.5871H125.248Z" fill="black"/>
<path d="M129.987 26.6923C130.014 28.2598 131.015 28.9053 132.174 28.9053C133.004 28.9053 133.505 28.7605 133.939 28.576L134.137 29.406C133.729 29.5905 133.031 29.8012 132.016 29.8012C130.053 29.8012 128.881 28.5102 128.881 26.587C128.881 24.6639 130.014 23.1489 131.871 23.1489C133.953 23.1489 134.506 24.9801 134.506 26.1524C134.506 26.3895 134.48 26.574 134.467 26.6926H129.988L129.987 26.6923ZM133.386 25.8623C133.399 25.1246 133.083 23.9787 131.779 23.9787C130.606 23.9787 130.093 25.0587 130 25.8623H133.386Z" fill="black"/>
<path d="M132.016 29.8833C131.04 29.8833 130.223 29.5681 129.653 28.972C129.094 28.3875 128.799 27.5626 128.799 26.5868C128.799 25.6109 129.089 24.7271 129.616 24.0938C130.176 23.4217 130.956 23.0663 131.871 23.0663C132.787 23.0663 133.564 23.4462 134.038 24.1653C134.535 24.9188 134.588 25.8056 134.588 26.1519C134.588 26.3596 134.569 26.5252 134.555 26.646C134.552 26.6657 134.55 26.6841 134.548 26.7009L134.54 26.7742H130.072C130.099 27.4474 130.314 27.9689 130.711 28.3249C131.074 28.6504 131.58 28.8227 132.174 28.8227C133.029 28.8227 133.512 28.6675 133.907 28.4998L133.997 28.4617L134.233 29.4524L134.171 29.4804C133.764 29.6641 133.06 29.883 132.016 29.883V29.8833ZM131.871 23.2311C131.006 23.2311 130.27 23.5659 129.743 24.1992C129.24 24.8031 128.963 25.6509 128.963 26.5868C128.963 27.5226 129.243 28.3049 129.772 28.8581C130.31 29.421 131.086 29.7185 132.016 29.7185C132.946 29.7185 133.641 29.5284 134.041 29.3578L133.881 28.6885C133.486 28.848 132.994 28.9872 132.174 28.9872C131.539 28.9872 130.995 28.8005 130.601 28.4475C130.152 28.0449 129.918 27.4546 129.905 26.6931L129.904 26.6094H134.393C134.406 26.4942 134.423 26.3401 134.423 26.1516C134.423 25.8202 134.372 24.9718 133.9 24.2554C133.452 23.5753 132.769 23.2303 131.871 23.2303L131.871 23.2311ZM133.467 25.9447H129.908L129.919 25.853C130.031 24.879 130.649 23.8963 131.779 23.8963C132.261 23.8963 132.652 24.0464 132.943 24.3423C133.447 24.8553 133.473 25.6368 133.469 25.864L133.467 25.9447H133.467ZM130.095 25.78H133.304C133.298 25.5029 133.237 24.8766 132.825 24.4575C132.566 24.1944 132.214 24.0608 131.779 24.0608C130.655 24.0608 130.2 25.1006 130.094 25.78H130.095Z" fill="black"/>
<path d="M72.5902 27.7059C71.7605 30.0761 70.077 32.1912 68.5514 32.1912C67.9376 32.1912 67.7126 31.5833 66.4243 31.5833C65.136 31.5833 64.607 32.1912 63.9932 32.1912C61.8661 32.1912 59.4348 28.0858 59.4348 24.8978C59.4348 21.7098 61.5619 20.3394 63.3853 20.3394C64.3668 20.3394 65.4245 20.9473 66.4243 20.9473C67.4241 20.9473 68.1779 20.3394 69.1593 20.3394C70.1407 20.3394 71.3048 20.7708 72.0889 21.7159C71.0616 22.2993 70.3748 23.369 70.3748 24.5938C70.3748 26.0099 71.2925 27.2195 72.5902 27.7056V27.7059Z" fill="black"/>
<path d="M68.5517 32.2142C68.2952 32.2142 68.1048 32.1102 67.8843 31.9899C67.571 31.819 67.181 31.6063 66.4246 31.6063C65.6682 31.6063 65.1693 31.8196 64.7694 31.991C64.49 32.1107 64.2487 32.2142 63.9932 32.2142C63.4757 32.2142 62.9294 31.9798 62.369 31.5175C61.8533 31.0922 61.3443 30.4816 60.8967 29.7519C59.967 28.2356 59.4119 26.421 59.4119 24.8978C59.4119 23.3746 59.8609 22.2353 60.7103 21.4066C61.4206 20.7137 62.3956 20.3164 63.3853 20.3164C63.8773 20.3164 64.3958 20.4702 64.8974 20.6193C65.4026 20.7691 65.9252 20.9243 66.4243 20.9243C66.9234 20.9243 67.3671 20.7694 67.7971 20.6196C68.2248 20.4705 68.6669 20.3164 69.1593 20.3164C69.6904 20.3164 70.2311 20.4327 70.7236 20.6524C71.264 20.8936 71.7293 21.2464 72.1066 21.7015L72.1241 21.7226L72.1002 21.7362C71.5904 22.0257 71.1638 22.4374 70.8662 22.9266C70.5599 23.4306 70.3978 24.007 70.3978 24.5941C70.3978 25.2748 70.6111 25.9288 71.0145 26.4852C71.4091 27.0294 71.9567 27.444 72.5982 27.6845L72.6193 27.6925L72.6118 27.7138C72.1932 28.9096 71.5672 30.0247 70.8492 30.8531C70.0768 31.7438 69.2822 32.215 68.5514 32.215L68.5517 32.2142ZM66.4243 31.5604C67.1924 31.5604 67.5884 31.7764 67.9062 31.9497C68.1211 32.067 68.3067 32.168 68.5514 32.168C69.2686 32.168 70.0509 31.7025 70.8142 30.8221C71.5245 30.0028 72.1441 28.9016 72.5609 27.7192C71.9199 27.4744 71.3725 27.0574 70.9771 26.5119C70.5679 25.9475 70.3516 25.2844 70.3516 24.5938C70.3516 23.9985 70.5159 23.4135 70.8268 22.9024C71.1238 22.4142 71.5474 22.0023 72.0535 21.7095C71.3325 20.8529 70.2791 20.3623 69.1593 20.3623C68.6746 20.3623 68.2363 20.515 67.8123 20.6627C67.3788 20.8139 66.9303 20.9702 66.4243 20.9702C65.9182 20.9702 65.393 20.8142 64.8843 20.6633C64.386 20.5153 63.8706 20.3625 63.3853 20.3625C62.4074 20.3625 61.4441 20.7553 60.7423 21.4397C59.9022 22.2595 59.458 23.4554 59.458 24.8978C59.458 26.4127 60.0104 28.2186 60.9361 29.7279C61.8731 31.2559 63.0161 32.168 63.9935 32.168C64.2393 32.168 64.4766 32.0664 64.7515 31.9486C65.1552 31.7756 65.6578 31.5601 66.4248 31.5601L66.4243 31.5604Z" fill="black"/>
<path d="M68.5421 18.8124C68.7535 18.5473 68.9236 18.2458 69.0404 17.9133C69.2097 17.4305 69.2748 16.8911 69.1596 16.3888C69.1516 16.3541 68.6759 16.4602 68.6327 16.4722C68.3725 16.5447 68.1195 16.6429 67.8779 16.7639C66.8266 17.2902 65.8593 18.3135 65.7871 19.5381C65.7775 19.7007 65.7769 19.8762 65.8167 20.0356C65.8231 20.0607 66.1678 20.0319 66.1921 20.0303C67.1188 19.9639 67.9779 19.5189 68.5421 18.8126V18.8124Z" fill="black"/>
<path d="M65.8993 20.0692C65.8012 20.0692 65.798 20.0561 65.7943 20.0412C65.7513 19.869 65.7553 19.681 65.7639 19.5368C65.7977 18.9624 66.034 18.3879 66.4472 17.8749C66.813 17.4206 67.3175 17.0188 67.8675 16.7436C68.1115 16.6215 68.3669 16.5229 68.6263 16.4503C68.6309 16.449 69.1134 16.3333 69.1684 16.3661C69.1753 16.3703 69.1801 16.3765 69.1817 16.3839C69.3187 16.9817 69.1921 17.5499 69.0617 17.9213C68.9465 18.2492 68.7778 18.554 68.5597 18.827C67.9907 19.5394 67.1282 19.9865 66.1934 20.0535L66.1841 20.0543C66.0446 20.0652 65.9558 20.0695 65.899 20.0695L65.8993 20.0692ZM65.8364 20.0199C65.8556 20.0233 65.9265 20.0279 66.1806 20.0079L66.1902 20.0071C67.1124 19.941 67.963 19.5005 68.5239 18.7979C68.7386 18.5289 68.9049 18.2287 69.0185 17.9058C69.146 17.5424 69.27 16.9878 69.1396 16.405C69.0703 16.3981 68.6943 16.4791 68.6389 16.4946C68.3821 16.5663 68.1296 16.6639 67.8883 16.7847C67.3441 17.0572 66.845 17.4544 66.4835 17.9037C66.0764 18.4092 65.8436 18.975 65.8103 19.5394C65.802 19.6778 65.798 19.8564 65.8369 20.0199H65.8364Z" fill="black"/>
</g>
<defs>
<clipPath id="clip0_2499_333">
<rect width="75.1763" height="16" fill="white" transform="translate(59.4119 16.36)"/>
</clipPath>
</defs>
</svg>
