<svg width="426" height="137" viewBox="0 0 426 137" fill="none" xmlns="http://www.w3.org/2000/svg">
<rect y="0.5" width="426" height="136" rx="24" fill="#FF7A03"/>
<rect x="17" y="33.5" width="70" height="70" rx="35" fill="white"/>
<rect x="17" y="33.5" width="70" height="70" rx="35" stroke="#0000C9" stroke-width="2"/>
<g clip-path="url(#clip0_2501_3823)">
<path d="M61.8182 82V79.5452C62.4958 79.5452 63.0452 78.9958 63.0452 78.3182V58.6818C63.0452 58.0042 62.4958 57.4548 61.8182 57.4548H49.5455C48.8678 57.4548 48.3184 58.0042 48.3184 58.6818V61.0382H45.8637V58.6818C45.8637 56.6482 47.5119 55 49.5455 55H61.8182C63.8518 55 65.5 56.6482 65.5 58.6818V78.3182C65.5 80.3518 63.8518 82 61.8182 82ZM60.5911 59.9089H50.7726V62.3637H60.5911V59.9089ZM60.5911 68.5003V78.3187C60.5911 80.3524 58.9429 82.0006 56.9092 82.0006H42.1818C40.1482 82.0006 38.5 80.3524 38.5 78.3187V66.0461C38.5 64.0125 40.1482 62.3643 42.1818 62.3643H47.0908C47.417 62.3625 47.7305 62.4903 47.9623 62.7204L50.0489 64.819H56.9092C58.9429 64.819 60.5911 66.4672 60.5911 68.5009V68.5003ZM53.2274 72.1821H50.7726V69.7274H48.3179V72.1821H45.8631V74.6369H48.3179V77.0916H50.7726V74.6369H53.2274V72.1821Z" fill="#203A72"/>
<path d="M60.591 59.9204H50.7887V62.3637H60.591V59.9204Z" fill="#14A0DE"/>
</g>
<path d="M115.961 52.3516L116.156 44.3281H117.766L117.961 52.3516H115.961ZM118.016 41.8984C118.016 42.1797 117.919 42.4193 117.727 42.6172C117.539 42.8099 117.276 42.9062 116.938 42.9062C116.604 42.9062 116.341 42.8099 116.148 42.6172C115.956 42.4193 115.859 42.1797 115.859 41.8984C115.859 41.6172 115.956 41.3802 116.148 41.1875C116.341 40.9948 116.604 40.8984 116.938 40.8984C117.276 40.8984 117.539 40.9948 117.727 41.1875C117.919 41.3802 118.016 41.6172 118.016 41.8984ZM126.945 45.7969H128.898C128.836 46.5417 128.628 47.2057 128.273 47.7891C127.919 48.3672 127.422 48.8229 126.781 49.1562C126.141 49.4896 125.362 49.6562 124.445 49.6562C123.742 49.6562 123.109 49.5312 122.547 49.2812C121.984 49.026 121.503 48.6667 121.102 48.2031C120.701 47.7344 120.393 47.1693 120.18 46.5078C119.971 45.8464 119.867 45.1068 119.867 44.2891V43.3438C119.867 42.526 119.974 41.7865 120.188 41.125C120.406 40.4635 120.719 39.8984 121.125 39.4297C121.531 38.9557 122.018 38.5938 122.586 38.3438C123.159 38.0938 123.802 37.9688 124.516 37.9688C125.422 37.9688 126.188 38.1354 126.812 38.4688C127.438 38.8021 127.922 39.263 128.266 39.8516C128.615 40.4401 128.828 41.1146 128.906 41.875H126.953C126.901 41.3854 126.786 40.9661 126.609 40.6172C126.438 40.2682 126.182 40.0026 125.844 39.8203C125.505 39.6328 125.062 39.5391 124.516 39.5391C124.068 39.5391 123.677 39.6224 123.344 39.7891C123.01 39.9557 122.732 40.2005 122.508 40.5234C122.284 40.8464 122.115 41.2448 122 41.7188C121.891 42.1875 121.836 42.724 121.836 43.3281V44.2891C121.836 44.862 121.885 45.3828 121.984 45.8516C122.089 46.3151 122.245 46.7135 122.453 47.0469C122.667 47.3802 122.938 47.638 123.266 47.8203C123.594 48.0026 123.987 48.0938 124.445 48.0938C125.003 48.0938 125.453 48.0052 125.797 47.8281C126.146 47.651 126.409 47.3932 126.586 47.0547C126.768 46.7109 126.888 46.2917 126.945 45.7969ZM130.133 45.3672V45.1875C130.133 44.5781 130.221 44.013 130.398 43.4922C130.576 42.9661 130.831 42.5104 131.164 42.125C131.503 41.7344 131.914 41.4323 132.398 41.2188C132.888 41 133.44 40.8906 134.055 40.8906C134.674 40.8906 135.227 41 135.711 41.2188C136.201 41.4323 136.615 41.7344 136.953 42.125C137.292 42.5104 137.549 42.9661 137.727 43.4922C137.904 44.013 137.992 44.5781 137.992 45.1875V45.3672C137.992 45.9766 137.904 46.5417 137.727 47.0625C137.549 47.5833 137.292 48.0391 136.953 48.4297C136.615 48.8151 136.203 49.1172 135.719 49.3359C135.234 49.5495 134.685 49.6562 134.07 49.6562C133.451 49.6562 132.896 49.5495 132.406 49.3359C131.922 49.1172 131.51 48.8151 131.172 48.4297C130.833 48.0391 130.576 47.5833 130.398 47.0625C130.221 46.5417 130.133 45.9766 130.133 45.3672ZM132.016 45.1875V45.3672C132.016 45.7474 132.055 46.1068 132.133 46.4453C132.211 46.7839 132.333 47.0807 132.5 47.3359C132.667 47.5911 132.88 47.7917 133.141 47.9375C133.401 48.0833 133.711 48.1562 134.07 48.1562C134.419 48.1562 134.721 48.0833 134.977 47.9375C135.237 47.7917 135.451 47.5911 135.617 47.3359C135.784 47.0807 135.906 46.7839 135.984 46.4453C136.068 46.1068 136.109 45.7474 136.109 45.3672V45.1875C136.109 44.8125 136.068 44.4583 135.984 44.125C135.906 43.7865 135.781 43.487 135.609 43.2266C135.443 42.9661 135.229 42.763 134.969 42.6172C134.714 42.4661 134.409 42.3906 134.055 42.3906C133.701 42.3906 133.393 42.4661 133.133 42.6172C132.878 42.763 132.667 42.9661 132.5 43.2266C132.333 43.487 132.211 43.7865 132.133 44.125C132.055 44.4583 132.016 44.8125 132.016 45.1875ZM141.438 42.8516V49.5H139.555V41.0469H141.328L141.438 42.8516ZM141.102 44.9609L140.492 44.9531C140.497 44.3542 140.581 43.8047 140.742 43.3047C140.909 42.8047 141.138 42.375 141.43 42.0156C141.727 41.6562 142.081 41.3802 142.492 41.1875C142.904 40.9896 143.362 40.8906 143.867 40.8906C144.273 40.8906 144.641 40.9479 144.969 41.0625C145.302 41.1719 145.586 41.3516 145.82 41.6016C146.06 41.8516 146.242 42.1771 146.367 42.5781C146.492 42.974 146.555 43.4609 146.555 44.0391V49.5H144.664V44.0312C144.664 43.625 144.604 43.3047 144.484 43.0703C144.37 42.8307 144.201 42.6615 143.977 42.5625C143.758 42.4583 143.484 42.4062 143.156 42.4062C142.833 42.4062 142.544 42.474 142.289 42.6094C142.034 42.7448 141.818 42.9297 141.641 43.1641C141.469 43.3984 141.336 43.6693 141.242 43.9766C141.148 44.2839 141.102 44.612 141.102 44.9609ZM153.219 47.2109C153.219 47.0234 153.172 46.8542 153.078 46.7031C152.984 46.5469 152.805 46.4062 152.539 46.2812C152.279 46.1562 151.893 46.0417 151.383 45.9375C150.935 45.8385 150.523 45.7214 150.148 45.5859C149.779 45.4453 149.461 45.276 149.195 45.0781C148.93 44.8802 148.724 44.6458 148.578 44.375C148.432 44.1042 148.359 43.7917 148.359 43.4375C148.359 43.0938 148.435 42.7682 148.586 42.4609C148.737 42.1536 148.953 41.8828 149.234 41.6484C149.516 41.4141 149.857 41.2292 150.258 41.0938C150.664 40.9583 151.117 40.8906 151.617 40.8906C152.326 40.8906 152.932 41.0104 153.438 41.25C153.948 41.4844 154.339 41.8047 154.609 42.2109C154.88 42.612 155.016 43.0651 155.016 43.5703H153.133C153.133 43.3464 153.076 43.138 152.961 42.9453C152.852 42.7474 152.685 42.5885 152.461 42.4688C152.237 42.3438 151.956 42.2812 151.617 42.2812C151.294 42.2812 151.026 42.3333 150.812 42.4375C150.604 42.5365 150.448 42.6667 150.344 42.8281C150.245 42.9896 150.195 43.1667 150.195 43.3594C150.195 43.5 150.221 43.6276 150.273 43.7422C150.331 43.8516 150.424 43.9531 150.555 44.0469C150.685 44.1354 150.862 44.2188 151.086 44.2969C151.315 44.375 151.602 44.4505 151.945 44.5234C152.591 44.6589 153.146 44.8333 153.609 45.0469C154.078 45.2552 154.438 45.526 154.688 45.8594C154.938 46.1875 155.062 46.6042 155.062 47.1094C155.062 47.4844 154.982 47.8281 154.82 48.1406C154.664 48.4479 154.435 48.7161 154.133 48.9453C153.831 49.1693 153.469 49.3438 153.047 49.4688C152.63 49.5938 152.161 49.6562 151.641 49.6562C150.875 49.6562 150.227 49.5208 149.695 49.25C149.164 48.974 148.76 48.6224 148.484 48.1953C148.214 47.763 148.078 47.3151 148.078 46.8516H149.898C149.919 47.2005 150.016 47.4792 150.188 47.6875C150.365 47.8906 150.583 48.0391 150.844 48.1328C151.109 48.2214 151.383 48.2656 151.664 48.2656C152.003 48.2656 152.286 48.2214 152.516 48.1328C152.745 48.0391 152.919 47.9141 153.039 47.7578C153.159 47.5964 153.219 47.4141 153.219 47.2109ZM161.797 47.5078V41.0469H163.688V49.5H161.906L161.797 47.5078ZM162.062 45.75L162.695 45.7344C162.695 46.3021 162.633 46.8255 162.508 47.3047C162.383 47.7786 162.19 48.1927 161.93 48.5469C161.669 48.8958 161.336 49.1693 160.93 49.3672C160.523 49.5599 160.036 49.6562 159.469 49.6562C159.057 49.6562 158.68 49.5964 158.336 49.4766C157.992 49.3568 157.695 49.1719 157.445 48.9219C157.201 48.6719 157.01 48.3464 156.875 47.9453C156.74 47.5443 156.672 47.0651 156.672 46.5078V41.0469H158.555V46.5234C158.555 46.8307 158.591 47.0885 158.664 47.2969C158.737 47.5 158.836 47.6641 158.961 47.7891C159.086 47.9141 159.232 48.0026 159.398 48.0547C159.565 48.1068 159.742 48.1328 159.93 48.1328C160.466 48.1328 160.888 48.0286 161.195 47.8203C161.508 47.6068 161.729 47.3203 161.859 46.9609C161.995 46.6016 162.062 46.1979 162.062 45.75ZM167.633 37.5V49.5H165.742V37.5H167.633ZM173.57 41.0469V42.4219H168.805V41.0469H173.57ZM170.18 38.9766H172.062V47.1641C172.062 47.4245 172.099 47.625 172.172 47.7656C172.25 47.901 172.357 47.9922 172.492 48.0391C172.628 48.0859 172.786 48.1094 172.969 48.1094C173.099 48.1094 173.224 48.1016 173.344 48.0859C173.464 48.0703 173.56 48.0547 173.633 48.0391L173.641 49.4766C173.484 49.5234 173.302 49.5651 173.094 49.6016C172.891 49.638 172.656 49.6562 172.391 49.6562C171.958 49.6562 171.576 49.5807 171.242 49.4297C170.909 49.2734 170.648 49.0208 170.461 48.6719C170.273 48.3229 170.18 47.8594 170.18 47.2812V38.9766ZM179.789 47.8047V43.7734C179.789 43.4714 179.734 43.2109 179.625 42.9922C179.516 42.7734 179.349 42.6042 179.125 42.4844C178.906 42.3646 178.63 42.3047 178.297 42.3047C177.99 42.3047 177.724 42.3568 177.5 42.4609C177.276 42.5651 177.102 42.7057 176.977 42.8828C176.852 43.0599 176.789 43.2604 176.789 43.4844H174.914C174.914 43.151 174.995 42.8281 175.156 42.5156C175.318 42.2031 175.552 41.9245 175.859 41.6797C176.167 41.4349 176.534 41.2422 176.961 41.1016C177.388 40.9609 177.867 40.8906 178.398 40.8906C179.034 40.8906 179.596 40.9974 180.086 41.2109C180.581 41.4245 180.969 41.7474 181.25 42.1797C181.536 42.6068 181.68 43.1432 181.68 43.7891V47.5469C181.68 47.9323 181.706 48.2786 181.758 48.5859C181.815 48.888 181.896 49.151 182 49.375V49.5H180.07C179.982 49.2969 179.911 49.0391 179.859 48.7266C179.812 48.4089 179.789 48.1016 179.789 47.8047ZM180.062 44.3594L180.078 45.5234H178.727C178.378 45.5234 178.07 45.5573 177.805 45.625C177.539 45.6875 177.318 45.7812 177.141 45.9062C176.964 46.0312 176.831 46.1823 176.742 46.3594C176.654 46.5365 176.609 46.737 176.609 46.9609C176.609 47.1849 176.661 47.3906 176.766 47.5781C176.87 47.7604 177.021 47.9036 177.219 48.0078C177.422 48.112 177.667 48.1641 177.953 48.1641C178.339 48.1641 178.674 48.0859 178.961 47.9297C179.253 47.7682 179.482 47.5729 179.648 47.3438C179.815 47.1094 179.904 46.888 179.914 46.6797L180.523 47.5156C180.461 47.7292 180.354 47.9583 180.203 48.2031C180.052 48.4479 179.854 48.6823 179.609 48.9062C179.37 49.125 179.081 49.3047 178.742 49.4453C178.409 49.5859 178.023 49.6562 177.586 49.6562C177.034 49.6562 176.542 49.5469 176.109 49.3281C175.677 49.1042 175.339 48.8047 175.094 48.4297C174.849 48.0495 174.727 47.6198 174.727 47.1406C174.727 46.6927 174.81 46.2969 174.977 45.9531C175.148 45.6042 175.398 45.3125 175.727 45.0781C176.06 44.8438 176.466 44.6667 176.945 44.5469C177.424 44.4219 177.971 44.3594 178.586 44.3594H180.062ZM191.508 41.0469V42.4219H186.742V41.0469H191.508ZM188.117 38.9766H190V47.1641C190 47.4245 190.036 47.625 190.109 47.7656C190.188 47.901 190.294 47.9922 190.43 48.0391C190.565 48.0859 190.724 48.1094 190.906 48.1094C191.036 48.1094 191.161 48.1016 191.281 48.0859C191.401 48.0703 191.497 48.0547 191.57 48.0391L191.578 49.4766C191.422 49.5234 191.24 49.5651 191.031 49.6016C190.828 49.638 190.594 49.6562 190.328 49.6562C189.896 49.6562 189.513 49.5807 189.18 49.4297C188.846 49.2734 188.586 49.0208 188.398 48.6719C188.211 48.3229 188.117 47.8594 188.117 47.2812V38.9766ZM198.047 47.5078V41.0469H199.938V49.5H198.156L198.047 47.5078ZM198.312 45.75L198.945 45.7344C198.945 46.3021 198.883 46.8255 198.758 47.3047C198.633 47.7786 198.44 48.1927 198.18 48.5469C197.919 48.8958 197.586 49.1693 197.18 49.3672C196.773 49.5599 196.286 49.6562 195.719 49.6562C195.307 49.6562 194.93 49.5964 194.586 49.4766C194.242 49.3568 193.945 49.1719 193.695 48.9219C193.451 48.6719 193.26 48.3464 193.125 47.9453C192.99 47.5443 192.922 47.0651 192.922 46.5078V41.0469H194.805V46.5234C194.805 46.8307 194.841 47.0885 194.914 47.2969C194.987 47.5 195.086 47.6641 195.211 47.7891C195.336 47.9141 195.482 48.0026 195.648 48.0547C195.815 48.1068 195.992 48.1328 196.18 48.1328C196.716 48.1328 197.138 48.0286 197.445 47.8203C197.758 47.6068 197.979 47.3203 198.109 46.9609C198.245 46.6016 198.312 46.1979 198.312 45.75ZM206.039 38.125H210.062C210.927 38.125 211.664 38.2552 212.273 38.5156C212.883 38.776 213.349 39.1615 213.672 39.6719C214 40.1771 214.164 40.8021 214.164 41.5469C214.164 42.1146 214.06 42.6146 213.852 43.0469C213.643 43.4792 213.349 43.8438 212.969 44.1406C212.589 44.4323 212.135 44.6589 211.609 44.8203L211.016 45.1094H207.398L207.383 43.5547H210.094C210.562 43.5547 210.953 43.4714 211.266 43.3047C211.578 43.138 211.812 42.9115 211.969 42.625C212.13 42.3333 212.211 42.0052 212.211 41.6406C212.211 41.2448 212.133 40.901 211.977 40.6094C211.826 40.3125 211.591 40.0859 211.273 39.9297C210.956 39.7682 210.552 39.6875 210.062 39.6875H208V49.5H206.039V38.125ZM212.531 49.5L209.859 44.3906L211.914 44.3828L214.625 49.3984V49.5H212.531ZM219.656 49.6562C219.031 49.6562 218.466 49.5547 217.961 49.3516C217.461 49.1432 217.034 48.8542 216.68 48.4844C216.331 48.1146 216.062 47.6797 215.875 47.1797C215.688 46.6797 215.594 46.1406 215.594 45.5625V45.25C215.594 44.5885 215.69 43.9896 215.883 43.4531C216.076 42.9167 216.344 42.4583 216.688 42.0781C217.031 41.6927 217.438 41.3984 217.906 41.1953C218.375 40.9922 218.883 40.8906 219.43 40.8906C220.034 40.8906 220.562 40.9922 221.016 41.1953C221.469 41.3984 221.844 41.6849 222.141 42.0547C222.443 42.4193 222.667 42.8542 222.812 43.3594C222.964 43.8646 223.039 44.4219 223.039 45.0312V45.8359H216.508V44.4844H221.18V44.3359C221.169 43.9974 221.102 43.6797 220.977 43.3828C220.857 43.0859 220.672 42.8464 220.422 42.6641C220.172 42.4818 219.839 42.3906 219.422 42.3906C219.109 42.3906 218.831 42.4583 218.586 42.5938C218.346 42.724 218.146 42.9141 217.984 43.1641C217.823 43.4141 217.698 43.7161 217.609 44.0703C217.526 44.4193 217.484 44.8125 217.484 45.25V45.5625C217.484 45.9323 217.534 46.276 217.633 46.5938C217.737 46.9062 217.888 47.1797 218.086 47.4141C218.284 47.6484 218.523 47.8333 218.805 47.9688C219.086 48.099 219.406 48.1641 219.766 48.1641C220.219 48.1641 220.622 48.0729 220.977 47.8906C221.331 47.7083 221.638 47.4505 221.898 47.1172L222.891 48.0781C222.708 48.3438 222.471 48.599 222.18 48.8438C221.888 49.0833 221.531 49.2786 221.109 49.4297C220.693 49.5807 220.208 49.6562 219.656 49.6562ZM227.961 48.1562C228.268 48.1562 228.544 48.0964 228.789 47.9766C229.039 47.8516 229.24 47.6797 229.391 47.4609C229.547 47.2422 229.633 46.9896 229.648 46.7031H231.422C231.411 47.25 231.25 47.7474 230.938 48.1953C230.625 48.6432 230.211 49 229.695 49.2656C229.18 49.526 228.609 49.6562 227.984 49.6562C227.339 49.6562 226.776 49.5469 226.297 49.3281C225.818 49.1042 225.419 48.7969 225.102 48.4062C224.784 48.0156 224.544 47.5651 224.383 47.0547C224.227 46.5443 224.148 45.9974 224.148 45.4141V45.1406C224.148 44.5573 224.227 44.0104 224.383 43.5C224.544 42.9844 224.784 42.5312 225.102 42.1406C225.419 41.75 225.818 41.4453 226.297 41.2266C226.776 41.0026 227.336 40.8906 227.977 40.8906C228.654 40.8906 229.247 41.026 229.758 41.2969C230.268 41.5625 230.669 41.9349 230.961 42.4141C231.258 42.888 231.411 43.4401 231.422 44.0703H229.648C229.633 43.7578 229.555 43.4766 229.414 43.2266C229.279 42.9714 229.086 42.7682 228.836 42.6172C228.591 42.4661 228.297 42.3906 227.953 42.3906C227.573 42.3906 227.258 42.4688 227.008 42.625C226.758 42.776 226.562 42.9844 226.422 43.25C226.281 43.5104 226.18 43.8047 226.117 44.1328C226.06 44.4557 226.031 44.7917 226.031 45.1406V45.4141C226.031 45.763 226.06 46.1016 226.117 46.4297C226.174 46.7578 226.273 47.0521 226.414 47.3125C226.56 47.5677 226.758 47.7734 227.008 47.9297C227.258 48.0807 227.576 48.1562 227.961 48.1562ZM236.594 49.6562C235.969 49.6562 235.404 49.5547 234.898 49.3516C234.398 49.1432 233.971 48.8542 233.617 48.4844C233.268 48.1146 233 47.6797 232.812 47.1797C232.625 46.6797 232.531 46.1406 232.531 45.5625V45.25C232.531 44.5885 232.628 43.9896 232.82 43.4531C233.013 42.9167 233.281 42.4583 233.625 42.0781C233.969 41.6927 234.375 41.3984 234.844 41.1953C235.312 40.9922 235.82 40.8906 236.367 40.8906C236.971 40.8906 237.5 40.9922 237.953 41.1953C238.406 41.3984 238.781 41.6849 239.078 42.0547C239.38 42.4193 239.604 42.8542 239.75 43.3594C239.901 43.8646 239.977 44.4219 239.977 45.0312V45.8359H233.445V44.4844H238.117V44.3359C238.107 43.9974 238.039 43.6797 237.914 43.3828C237.794 43.0859 237.609 42.8464 237.359 42.6641C237.109 42.4818 236.776 42.3906 236.359 42.3906C236.047 42.3906 235.768 42.4583 235.523 42.5938C235.284 42.724 235.083 42.9141 234.922 43.1641C234.76 43.4141 234.635 43.7161 234.547 44.0703C234.464 44.4193 234.422 44.8125 234.422 45.25V45.5625C234.422 45.9323 234.471 46.276 234.57 46.5938C234.674 46.9062 234.826 47.1797 235.023 47.4141C235.221 47.6484 235.461 47.8333 235.742 47.9688C236.023 48.099 236.344 48.1641 236.703 48.1641C237.156 48.1641 237.56 48.0729 237.914 47.8906C238.268 47.7083 238.576 47.4505 238.836 47.1172L239.828 48.0781C239.646 48.3438 239.409 48.599 239.117 48.8438C238.826 49.0833 238.469 49.2786 238.047 49.4297C237.63 49.5807 237.146 49.6562 236.594 49.6562ZM245.32 41.0469V42.4219H240.555V41.0469H245.32ZM241.93 38.9766H243.812V47.1641C243.812 47.4245 243.849 47.625 243.922 47.7656C244 47.901 244.107 47.9922 244.242 48.0391C244.378 48.0859 244.536 48.1094 244.719 48.1094C244.849 48.1094 244.974 48.1016 245.094 48.0859C245.214 48.0703 245.31 48.0547 245.383 48.0391L245.391 49.4766C245.234 49.5234 245.052 49.5651 244.844 49.6016C244.641 49.638 244.406 49.6562 244.141 49.6562C243.708 49.6562 243.326 49.5807 242.992 49.4297C242.659 49.2734 242.398 49.0208 242.211 48.6719C242.023 48.3229 241.93 47.8594 241.93 47.2812V38.9766ZM251.539 47.8047V43.7734C251.539 43.4714 251.484 43.2109 251.375 42.9922C251.266 42.7734 251.099 42.6042 250.875 42.4844C250.656 42.3646 250.38 42.3047 250.047 42.3047C249.74 42.3047 249.474 42.3568 249.25 42.4609C249.026 42.5651 248.852 42.7057 248.727 42.8828C248.602 43.0599 248.539 43.2604 248.539 43.4844H246.664C246.664 43.151 246.745 42.8281 246.906 42.5156C247.068 42.2031 247.302 41.9245 247.609 41.6797C247.917 41.4349 248.284 41.2422 248.711 41.1016C249.138 40.9609 249.617 40.8906 250.148 40.8906C250.784 40.8906 251.346 40.9974 251.836 41.2109C252.331 41.4245 252.719 41.7474 253 42.1797C253.286 42.6068 253.43 43.1432 253.43 43.7891V47.5469C253.43 47.9323 253.456 48.2786 253.508 48.5859C253.565 48.888 253.646 49.151 253.75 49.375V49.5H251.82C251.732 49.2969 251.661 49.0391 251.609 48.7266C251.562 48.4089 251.539 48.1016 251.539 47.8047ZM251.812 44.3594L251.828 45.5234H250.477C250.128 45.5234 249.82 45.5573 249.555 45.625C249.289 45.6875 249.068 45.7812 248.891 45.9062C248.714 46.0312 248.581 46.1823 248.492 46.3594C248.404 46.5365 248.359 46.737 248.359 46.9609C248.359 47.1849 248.411 47.3906 248.516 47.5781C248.62 47.7604 248.771 47.9036 248.969 48.0078C249.172 48.112 249.417 48.1641 249.703 48.1641C250.089 48.1641 250.424 48.0859 250.711 47.9297C251.003 47.7682 251.232 47.5729 251.398 47.3438C251.565 47.1094 251.654 46.888 251.664 46.6797L252.273 47.5156C252.211 47.7292 252.104 47.9583 251.953 48.2031C251.802 48.4479 251.604 48.6823 251.359 48.9062C251.12 49.125 250.831 49.3047 250.492 49.4453C250.159 49.5859 249.773 49.6562 249.336 49.6562C248.784 49.6562 248.292 49.5469 247.859 49.3281C247.427 49.1042 247.089 48.8047 246.844 48.4297C246.599 48.0495 246.477 47.6198 246.477 47.1406C246.477 46.6927 246.56 46.2969 246.727 45.9531C246.898 45.6042 247.148 45.3125 247.477 45.0781C247.81 44.8438 248.216 44.6667 248.695 44.5469C249.174 44.4219 249.721 44.3594 250.336 44.3594H251.812ZM260.367 38.125H262.117L265.406 46.8984L268.688 38.125H270.438L266.094 49.5H264.703L260.367 38.125ZM259.57 38.125H261.234L261.523 45.7188V49.5H259.57V38.125ZM269.57 38.125H271.242V49.5H269.281V45.7188L269.57 38.125ZM277.109 49.6562C276.484 49.6562 275.919 49.5547 275.414 49.3516C274.914 49.1432 274.487 48.8542 274.133 48.4844C273.784 48.1146 273.516 47.6797 273.328 47.1797C273.141 46.6797 273.047 46.1406 273.047 45.5625V45.25C273.047 44.5885 273.143 43.9896 273.336 43.4531C273.529 42.9167 273.797 42.4583 274.141 42.0781C274.484 41.6927 274.891 41.3984 275.359 41.1953C275.828 40.9922 276.336 40.8906 276.883 40.8906C277.487 40.8906 278.016 40.9922 278.469 41.1953C278.922 41.3984 279.297 41.6849 279.594 42.0547C279.896 42.4193 280.12 42.8542 280.266 43.3594C280.417 43.8646 280.492 44.4219 280.492 45.0312V45.8359H273.961V44.4844H278.633V44.3359C278.622 43.9974 278.555 43.6797 278.43 43.3828C278.31 43.0859 278.125 42.8464 277.875 42.6641C277.625 42.4818 277.292 42.3906 276.875 42.3906C276.562 42.3906 276.284 42.4583 276.039 42.5938C275.799 42.724 275.599 42.9141 275.438 43.1641C275.276 43.4141 275.151 43.7161 275.062 44.0703C274.979 44.4193 274.938 44.8125 274.938 45.25V45.5625C274.938 45.9323 274.987 46.276 275.086 46.5938C275.19 46.9062 275.341 47.1797 275.539 47.4141C275.737 47.6484 275.977 47.8333 276.258 47.9688C276.539 48.099 276.859 48.1641 277.219 48.1641C277.672 48.1641 278.076 48.0729 278.43 47.8906C278.784 47.7083 279.091 47.4505 279.352 47.1172L280.344 48.0781C280.161 48.3438 279.924 48.599 279.633 48.8438C279.341 49.0833 278.984 49.2786 278.562 49.4297C278.146 49.5807 277.661 49.6562 277.109 49.6562ZM275.797 39.8516L277.32 37.5H279.445L277.32 39.8516H275.797ZM287.117 47.75V37.5H289.008V49.5H287.297L287.117 47.75ZM281.617 45.3672V45.2031C281.617 44.5625 281.693 43.9792 281.844 43.4531C281.995 42.9219 282.214 42.4661 282.5 42.0859C282.786 41.7005 283.135 41.4062 283.547 41.2031C283.958 40.9948 284.422 40.8906 284.938 40.8906C285.448 40.8906 285.896 40.9896 286.281 41.1875C286.667 41.3854 286.995 41.6693 287.266 42.0391C287.536 42.4036 287.753 42.8411 287.914 43.3516C288.076 43.8568 288.19 44.4193 288.258 45.0391V45.5625C288.19 46.1667 288.076 46.7188 287.914 47.2188C287.753 47.7188 287.536 48.151 287.266 48.5156C286.995 48.8802 286.664 49.1615 286.273 49.3594C285.888 49.5573 285.438 49.6562 284.922 49.6562C284.411 49.6562 283.951 49.5495 283.539 49.3359C283.133 49.1224 282.786 48.8229 282.5 48.4375C282.214 48.0521 281.995 47.599 281.844 47.0781C281.693 46.5521 281.617 45.9818 281.617 45.3672ZM283.5 45.2031V45.3672C283.5 45.7526 283.534 46.112 283.602 46.4453C283.674 46.7786 283.786 47.0729 283.938 47.3281C284.089 47.5781 284.284 47.776 284.523 47.9219C284.768 48.0625 285.06 48.1328 285.398 48.1328C285.826 48.1328 286.177 48.0391 286.453 47.8516C286.729 47.6641 286.945 47.4115 287.102 47.0938C287.263 46.7708 287.372 46.4115 287.43 46.0156V44.6016C287.398 44.2943 287.333 44.0078 287.234 43.7422C287.141 43.4766 287.013 43.2448 286.852 43.0469C286.69 42.8438 286.49 42.6875 286.25 42.5781C286.016 42.4635 285.737 42.4062 285.414 42.4062C285.07 42.4062 284.779 42.4792 284.539 42.625C284.299 42.7708 284.102 42.9714 283.945 43.2266C283.794 43.4818 283.682 43.7786 283.609 44.1172C283.536 44.4557 283.5 44.8177 283.5 45.2031ZM292.992 41.0469V49.5H291.102V41.0469H292.992ZM290.977 38.8281C290.977 38.5417 291.07 38.3047 291.258 38.1172C291.451 37.9245 291.716 37.8281 292.055 37.8281C292.388 37.8281 292.651 37.9245 292.844 38.1172C293.036 38.3047 293.133 38.5417 293.133 38.8281C293.133 39.1094 293.036 39.3438 292.844 39.5312C292.651 39.7188 292.388 39.8125 292.055 39.8125C291.716 39.8125 291.451 39.7188 291.258 39.5312C291.07 39.3438 290.977 39.1094 290.977 38.8281ZM298.508 48.1562C298.815 48.1562 299.091 48.0964 299.336 47.9766C299.586 47.8516 299.786 47.6797 299.938 47.4609C300.094 47.2422 300.18 46.9896 300.195 46.7031H301.969C301.958 47.25 301.797 47.7474 301.484 48.1953C301.172 48.6432 300.758 49 300.242 49.2656C299.727 49.526 299.156 49.6562 298.531 49.6562C297.885 49.6562 297.323 49.5469 296.844 49.3281C296.365 49.1042 295.966 48.7969 295.648 48.4062C295.331 48.0156 295.091 47.5651 294.93 47.0547C294.773 46.5443 294.695 45.9974 294.695 45.4141V45.1406C294.695 44.5573 294.773 44.0104 294.93 43.5C295.091 42.9844 295.331 42.5312 295.648 42.1406C295.966 41.75 296.365 41.4453 296.844 41.2266C297.323 41.0026 297.883 40.8906 298.523 40.8906C299.201 40.8906 299.794 41.026 300.305 41.2969C300.815 41.5625 301.216 41.9349 301.508 42.4141C301.805 42.888 301.958 43.4401 301.969 44.0703H300.195C300.18 43.7578 300.102 43.4766 299.961 43.2266C299.826 42.9714 299.633 42.7682 299.383 42.6172C299.138 42.4661 298.844 42.3906 298.5 42.3906C298.12 42.3906 297.805 42.4688 297.555 42.625C297.305 42.776 297.109 42.9844 296.969 43.25C296.828 43.5104 296.727 43.8047 296.664 44.1328C296.607 44.4557 296.578 44.7917 296.578 45.1406V45.4141C296.578 45.763 296.607 46.1016 296.664 46.4297C296.721 46.7578 296.82 47.0521 296.961 47.3125C297.107 47.5677 297.305 47.7734 297.555 47.9297C297.805 48.0807 298.122 48.1562 298.508 48.1562ZM308.18 47.8047V43.7734C308.18 43.4714 308.125 43.2109 308.016 42.9922C307.906 42.7734 307.74 42.6042 307.516 42.4844C307.297 42.3646 307.021 42.3047 306.688 42.3047C306.38 42.3047 306.115 42.3568 305.891 42.4609C305.667 42.5651 305.492 42.7057 305.367 42.8828C305.242 43.0599 305.18 43.2604 305.18 43.4844H303.305C303.305 43.151 303.385 42.8281 303.547 42.5156C303.708 42.2031 303.943 41.9245 304.25 41.6797C304.557 41.4349 304.924 41.2422 305.352 41.1016C305.779 40.9609 306.258 40.8906 306.789 40.8906C307.424 40.8906 307.987 40.9974 308.477 41.2109C308.971 41.4245 309.359 41.7474 309.641 42.1797C309.927 42.6068 310.07 43.1432 310.07 43.7891V47.5469C310.07 47.9323 310.096 48.2786 310.148 48.5859C310.206 48.888 310.286 49.151 310.391 49.375V49.5H308.461C308.372 49.2969 308.302 49.0391 308.25 48.7266C308.203 48.4089 308.18 48.1016 308.18 47.8047ZM308.453 44.3594L308.469 45.5234H307.117C306.768 45.5234 306.461 45.5573 306.195 45.625C305.93 45.6875 305.708 45.7812 305.531 45.9062C305.354 46.0312 305.221 46.1823 305.133 46.3594C305.044 46.5365 305 46.737 305 46.9609C305 47.1849 305.052 47.3906 305.156 47.5781C305.26 47.7604 305.411 47.9036 305.609 48.0078C305.812 48.112 306.057 48.1641 306.344 48.1641C306.729 48.1641 307.065 48.0859 307.352 47.9297C307.643 47.7682 307.872 47.5729 308.039 47.3438C308.206 47.1094 308.294 46.888 308.305 46.6797L308.914 47.5156C308.852 47.7292 308.745 47.9583 308.594 48.2031C308.443 48.4479 308.245 48.6823 308 48.9062C307.76 49.125 307.471 49.3047 307.133 49.4453C306.799 49.5859 306.414 49.6562 305.977 49.6562C305.424 49.6562 304.932 49.5469 304.5 49.3281C304.068 49.1042 303.729 48.8047 303.484 48.4297C303.24 48.0495 303.117 47.6198 303.117 47.1406C303.117 46.6927 303.201 46.2969 303.367 45.9531C303.539 45.6042 303.789 45.3125 304.117 45.0781C304.451 44.8438 304.857 44.6667 305.336 44.5469C305.815 44.4219 306.362 44.3594 306.977 44.3594H308.453ZM323.656 47.9453V49.5H317.617V47.9453H323.656ZM318.172 38.125V49.5H316.211V38.125H318.172ZM322.867 42.875V44.4062H317.617V42.875H322.867ZM323.617 38.125V39.6875H317.617V38.125H323.617ZM327.086 37.5V49.5H325.195V37.5H327.086ZM332.875 49.6562C332.25 49.6562 331.685 49.5547 331.18 49.3516C330.68 49.1432 330.253 48.8542 329.898 48.4844C329.549 48.1146 329.281 47.6797 329.094 47.1797C328.906 46.6797 328.812 46.1406 328.812 45.5625V45.25C328.812 44.5885 328.909 43.9896 329.102 43.4531C329.294 42.9167 329.562 42.4583 329.906 42.0781C330.25 41.6927 330.656 41.3984 331.125 41.1953C331.594 40.9922 332.102 40.8906 332.648 40.8906C333.253 40.8906 333.781 40.9922 334.234 41.1953C334.688 41.3984 335.062 41.6849 335.359 42.0547C335.661 42.4193 335.885 42.8542 336.031 43.3594C336.182 43.8646 336.258 44.4219 336.258 45.0312V45.8359H329.727V44.4844H334.398V44.3359C334.388 43.9974 334.32 43.6797 334.195 43.3828C334.076 43.0859 333.891 42.8464 333.641 42.6641C333.391 42.4818 333.057 42.3906 332.641 42.3906C332.328 42.3906 332.049 42.4583 331.805 42.5938C331.565 42.724 331.365 42.9141 331.203 43.1641C331.042 43.4141 330.917 43.7161 330.828 44.0703C330.745 44.4193 330.703 44.8125 330.703 45.25V45.5625C330.703 45.9323 330.753 46.276 330.852 46.5938C330.956 46.9062 331.107 47.1797 331.305 47.4141C331.503 47.6484 331.742 47.8333 332.023 47.9688C332.305 48.099 332.625 48.1641 332.984 48.1641C333.438 48.1641 333.841 48.0729 334.195 47.8906C334.549 47.7083 334.857 47.4505 335.117 47.1172L336.109 48.0781C335.927 48.3438 335.69 48.599 335.398 48.8438C335.107 49.0833 334.75 49.2786 334.328 49.4297C333.911 49.5807 333.427 49.6562 332.875 49.6562ZM341.18 48.1562C341.487 48.1562 341.763 48.0964 342.008 47.9766C342.258 47.8516 342.458 47.6797 342.609 47.4609C342.766 47.2422 342.852 46.9896 342.867 46.7031H344.641C344.63 47.25 344.469 47.7474 344.156 48.1953C343.844 48.6432 343.43 49 342.914 49.2656C342.398 49.526 341.828 49.6562 341.203 49.6562C340.557 49.6562 339.995 49.5469 339.516 49.3281C339.036 49.1042 338.638 48.7969 338.32 48.4062C338.003 48.0156 337.763 47.5651 337.602 47.0547C337.445 46.5443 337.367 45.9974 337.367 45.4141V45.1406C337.367 44.5573 337.445 44.0104 337.602 43.5C337.763 42.9844 338.003 42.5312 338.32 42.1406C338.638 41.75 339.036 41.4453 339.516 41.2266C339.995 41.0026 340.555 40.8906 341.195 40.8906C341.872 40.8906 342.466 41.026 342.977 41.2969C343.487 41.5625 343.888 41.9349 344.18 42.4141C344.477 42.888 344.63 43.4401 344.641 44.0703H342.867C342.852 43.7578 342.773 43.4766 342.633 43.2266C342.497 42.9714 342.305 42.7682 342.055 42.6172C341.81 42.4661 341.516 42.3906 341.172 42.3906C340.792 42.3906 340.477 42.4688 340.227 42.625C339.977 42.776 339.781 42.9844 339.641 43.25C339.5 43.5104 339.398 43.8047 339.336 44.1328C339.279 44.4557 339.25 44.7917 339.25 45.1406V45.4141C339.25 45.763 339.279 46.1016 339.336 46.4297C339.393 46.7578 339.492 47.0521 339.633 47.3125C339.779 47.5677 339.977 47.7734 340.227 47.9297C340.477 48.0807 340.794 48.1562 341.18 48.1562ZM349.961 41.0469V42.4219H345.195V41.0469H349.961ZM346.57 38.9766H348.453V47.1641C348.453 47.4245 348.49 47.625 348.562 47.7656C348.641 47.901 348.747 47.9922 348.883 48.0391C349.018 48.0859 349.177 48.1094 349.359 48.1094C349.49 48.1094 349.615 48.1016 349.734 48.0859C349.854 48.0703 349.951 48.0547 350.023 48.0391L350.031 49.4766C349.875 49.5234 349.693 49.5651 349.484 49.6016C349.281 49.638 349.047 49.6562 348.781 49.6562C348.349 49.6562 347.966 49.5807 347.633 49.4297C347.299 49.2734 347.039 49.0208 346.852 48.6719C346.664 48.3229 346.57 47.8594 346.57 47.2812V38.9766ZM353.305 42.6562V49.5H351.422V41.0469H353.219L353.305 42.6562ZM355.891 40.9922L355.875 42.7422C355.76 42.7214 355.635 42.7057 355.5 42.6953C355.37 42.6849 355.24 42.6797 355.109 42.6797C354.786 42.6797 354.503 42.7266 354.258 42.8203C354.013 42.9089 353.807 43.0391 353.641 43.2109C353.479 43.3776 353.354 43.5807 353.266 43.8203C353.177 44.0599 353.125 44.3281 353.109 44.625L352.68 44.6562C352.68 44.125 352.732 43.6328 352.836 43.1797C352.94 42.7266 353.096 42.3281 353.305 41.9844C353.518 41.6406 353.784 41.3724 354.102 41.1797C354.424 40.987 354.797 40.8906 355.219 40.8906C355.333 40.8906 355.456 40.901 355.586 40.9219C355.721 40.9427 355.823 40.9661 355.891 40.9922ZM356.508 45.3672V45.1875C356.508 44.5781 356.596 44.013 356.773 43.4922C356.951 42.9661 357.206 42.5104 357.539 42.125C357.878 41.7344 358.289 41.4323 358.773 41.2188C359.263 41 359.815 40.8906 360.43 40.8906C361.049 40.8906 361.602 41 362.086 41.2188C362.576 41.4323 362.99 41.7344 363.328 42.125C363.667 42.5104 363.924 42.9661 364.102 43.4922C364.279 44.013 364.367 44.5781 364.367 45.1875V45.3672C364.367 45.9766 364.279 46.5417 364.102 47.0625C363.924 47.5833 363.667 48.0391 363.328 48.4297C362.99 48.8151 362.578 49.1172 362.094 49.3359C361.609 49.5495 361.06 49.6562 360.445 49.6562C359.826 49.6562 359.271 49.5495 358.781 49.3359C358.297 49.1172 357.885 48.8151 357.547 48.4297C357.208 48.0391 356.951 47.5833 356.773 47.0625C356.596 46.5417 356.508 45.9766 356.508 45.3672ZM358.391 45.1875V45.3672C358.391 45.7474 358.43 46.1068 358.508 46.4453C358.586 46.7839 358.708 47.0807 358.875 47.3359C359.042 47.5911 359.255 47.7917 359.516 47.9375C359.776 48.0833 360.086 48.1562 360.445 48.1562C360.794 48.1562 361.096 48.0833 361.352 47.9375C361.612 47.7917 361.826 47.5911 361.992 47.3359C362.159 47.0807 362.281 46.7839 362.359 46.4453C362.443 46.1068 362.484 45.7474 362.484 45.3672V45.1875C362.484 44.8125 362.443 44.4583 362.359 44.125C362.281 43.7865 362.156 43.487 361.984 43.2266C361.818 42.9661 361.604 42.763 361.344 42.6172C361.089 42.4661 360.784 42.3906 360.43 42.3906C360.076 42.3906 359.768 42.4661 359.508 42.6172C359.253 42.763 359.042 42.9661 358.875 43.2266C358.708 43.487 358.586 43.7865 358.508 44.125C358.43 44.4583 358.391 44.8125 358.391 45.1875ZM359.445 39.8516L360.969 37.5H363.094L360.969 39.8516H359.445ZM367.812 42.8516V49.5H365.93V41.0469H367.703L367.812 42.8516ZM367.477 44.9609L366.867 44.9531C366.872 44.3542 366.956 43.8047 367.117 43.3047C367.284 42.8047 367.513 42.375 367.805 42.0156C368.102 41.6562 368.456 41.3802 368.867 41.1875C369.279 40.9896 369.737 40.8906 370.242 40.8906C370.648 40.8906 371.016 40.9479 371.344 41.0625C371.677 41.1719 371.961 41.3516 372.195 41.6016C372.435 41.8516 372.617 42.1771 372.742 42.5781C372.867 42.974 372.93 43.4609 372.93 44.0391V49.5H371.039V44.0312C371.039 43.625 370.979 43.3047 370.859 43.0703C370.745 42.8307 370.576 42.6615 370.352 42.5625C370.133 42.4583 369.859 42.4062 369.531 42.4062C369.208 42.4062 368.919 42.474 368.664 42.6094C368.409 42.7448 368.193 42.9297 368.016 43.1641C367.844 43.3984 367.711 43.6693 367.617 43.9766C367.523 44.2839 367.477 44.612 367.477 44.9609ZM376.867 41.0469V49.5H374.977V41.0469H376.867ZM374.852 38.8281C374.852 38.5417 374.945 38.3047 375.133 38.1172C375.326 37.9245 375.591 37.8281 375.93 37.8281C376.263 37.8281 376.526 37.9245 376.719 38.1172C376.911 38.3047 377.008 38.5417 377.008 38.8281C377.008 39.1094 376.911 39.3438 376.719 39.5312C376.526 39.7188 376.263 39.8125 375.93 39.8125C375.591 39.8125 375.326 39.7188 375.133 39.5312C374.945 39.3438 374.852 39.1094 374.852 38.8281ZM382.383 48.1562C382.69 48.1562 382.966 48.0964 383.211 47.9766C383.461 47.8516 383.661 47.6797 383.812 47.4609C383.969 47.2422 384.055 46.9896 384.07 46.7031H385.844C385.833 47.25 385.672 47.7474 385.359 48.1953C385.047 48.6432 384.633 49 384.117 49.2656C383.602 49.526 383.031 49.6562 382.406 49.6562C381.76 49.6562 381.198 49.5469 380.719 49.3281C380.24 49.1042 379.841 48.7969 379.523 48.4062C379.206 48.0156 378.966 47.5651 378.805 47.0547C378.648 46.5443 378.57 45.9974 378.57 45.4141V45.1406C378.57 44.5573 378.648 44.0104 378.805 43.5C378.966 42.9844 379.206 42.5312 379.523 42.1406C379.841 41.75 380.24 41.4453 380.719 41.2266C381.198 41.0026 381.758 40.8906 382.398 40.8906C383.076 40.8906 383.669 41.026 384.18 41.2969C384.69 41.5625 385.091 41.9349 385.383 42.4141C385.68 42.888 385.833 43.4401 385.844 44.0703H384.07C384.055 43.7578 383.977 43.4766 383.836 43.2266C383.701 42.9714 383.508 42.7682 383.258 42.6172C383.013 42.4661 382.719 42.3906 382.375 42.3906C381.995 42.3906 381.68 42.4688 381.43 42.625C381.18 42.776 380.984 42.9844 380.844 43.25C380.703 43.5104 380.602 43.8047 380.539 44.1328C380.482 44.4557 380.453 44.7917 380.453 45.1406V45.4141C380.453 45.763 380.482 46.1016 380.539 46.4297C380.596 46.7578 380.695 47.0521 380.836 47.3125C380.982 47.5677 381.18 47.7734 381.43 47.9297C381.68 48.0807 381.997 48.1562 382.383 48.1562ZM392.055 47.8047V43.7734C392.055 43.4714 392 43.2109 391.891 42.9922C391.781 42.7734 391.615 42.6042 391.391 42.4844C391.172 42.3646 390.896 42.3047 390.562 42.3047C390.255 42.3047 389.99 42.3568 389.766 42.4609C389.542 42.5651 389.367 42.7057 389.242 42.8828C389.117 43.0599 389.055 43.2604 389.055 43.4844H387.18C387.18 43.151 387.26 42.8281 387.422 42.5156C387.583 42.2031 387.818 41.9245 388.125 41.6797C388.432 41.4349 388.799 41.2422 389.227 41.1016C389.654 40.9609 390.133 40.8906 390.664 40.8906C391.299 40.8906 391.862 40.9974 392.352 41.2109C392.846 41.4245 393.234 41.7474 393.516 42.1797C393.802 42.6068 393.945 43.1432 393.945 43.7891V47.5469C393.945 47.9323 393.971 48.2786 394.023 48.5859C394.081 48.888 394.161 49.151 394.266 49.375V49.5H392.336C392.247 49.2969 392.177 49.0391 392.125 48.7266C392.078 48.4089 392.055 48.1016 392.055 47.8047ZM392.328 44.3594L392.344 45.5234H390.992C390.643 45.5234 390.336 45.5573 390.07 45.625C389.805 45.6875 389.583 45.7812 389.406 45.9062C389.229 46.0312 389.096 46.1823 389.008 46.3594C388.919 46.5365 388.875 46.737 388.875 46.9609C388.875 47.1849 388.927 47.3906 389.031 47.5781C389.135 47.7604 389.286 47.9036 389.484 48.0078C389.688 48.112 389.932 48.1641 390.219 48.1641C390.604 48.1641 390.94 48.0859 391.227 47.9297C391.518 47.7682 391.747 47.5729 391.914 47.3438C392.081 47.1094 392.169 46.888 392.18 46.6797L392.789 47.5156C392.727 47.7292 392.62 47.9583 392.469 48.2031C392.318 48.4479 392.12 48.6823 391.875 48.9062C391.635 49.125 391.346 49.3047 391.008 49.4453C390.674 49.5859 390.289 49.6562 389.852 49.6562C389.299 49.6562 388.807 49.5469 388.375 49.3281C387.943 49.1042 387.604 48.8047 387.359 48.4297C387.115 48.0495 386.992 47.6198 386.992 47.1406C386.992 46.6927 387.076 46.2969 387.242 45.9531C387.414 45.6042 387.664 45.3125 387.992 45.0781C388.326 44.8438 388.732 44.6667 389.211 44.5469C389.69 44.4219 390.237 44.3594 390.852 44.3594H392.328ZM398.086 38.125L397.898 46.1484H396.289L396.094 38.125H398.086ZM396.039 48.6094C396.039 48.3229 396.133 48.0833 396.32 47.8906C396.513 47.6927 396.779 47.5938 397.117 47.5938C397.451 47.5938 397.714 47.6927 397.906 47.8906C398.099 48.0833 398.195 48.3229 398.195 48.6094C398.195 48.8854 398.099 49.1224 397.906 49.3203C397.714 49.513 397.451 49.6094 397.117 49.6094C396.779 49.6094 396.513 49.513 396.32 49.3203C396.133 49.1224 396.039 48.8854 396.039 48.6094Z" fill="white"/>
<rect x="104.5" y="65" width="305" height="39" rx="15.5" stroke="white"/>
<path d="M166.172 92.3516L166.367 84.3281H167.977L168.172 92.3516H166.172ZM168.227 81.8984C168.227 82.1797 168.13 82.4193 167.938 82.6172C167.75 82.8099 167.487 82.9062 167.148 82.9062C166.815 82.9062 166.552 82.8099 166.359 82.6172C166.167 82.4193 166.07 82.1797 166.07 81.8984C166.07 81.6172 166.167 81.3802 166.359 81.1875C166.552 80.9948 166.815 80.8984 167.148 80.8984C167.487 80.8984 167.75 80.9948 167.938 81.1875C168.13 81.3802 168.227 81.6172 168.227 81.8984ZM176.422 86.5703C176.422 86.3359 176.385 86.1276 176.312 85.9453C176.245 85.763 176.122 85.5964 175.945 85.4453C175.768 85.2943 175.518 85.1484 175.195 85.0078C174.878 84.862 174.471 84.7135 173.977 84.5625C173.435 84.3958 172.935 84.2109 172.477 84.0078C172.023 83.7995 171.628 83.5599 171.289 83.2891C170.951 83.013 170.688 82.6979 170.5 82.3438C170.312 81.9844 170.219 81.5703 170.219 81.1016C170.219 80.638 170.315 80.2161 170.508 79.8359C170.706 79.4557 170.984 79.1276 171.344 78.8516C171.708 78.5703 172.138 78.3542 172.633 78.2031C173.128 78.0469 173.674 77.9688 174.273 77.9688C175.117 77.9688 175.844 78.125 176.453 78.4375C177.068 78.75 177.539 79.1693 177.867 79.6953C178.201 80.2214 178.367 80.8021 178.367 81.4375H176.422C176.422 81.0625 176.341 80.7318 176.18 80.4453C176.023 80.1536 175.784 79.9245 175.461 79.7578C175.143 79.5911 174.74 79.5078 174.25 79.5078C173.786 79.5078 173.401 79.5781 173.094 79.7188C172.786 79.8594 172.557 80.0495 172.406 80.2891C172.255 80.5286 172.18 80.7995 172.18 81.1016C172.18 81.3151 172.229 81.5104 172.328 81.6875C172.427 81.8594 172.578 82.0208 172.781 82.1719C172.984 82.3177 173.24 82.4557 173.547 82.5859C173.854 82.7161 174.216 82.8411 174.633 82.9609C175.263 83.1484 175.812 83.3568 176.281 83.5859C176.75 83.8099 177.141 84.0651 177.453 84.3516C177.766 84.638 178 84.9635 178.156 85.3281C178.312 85.6875 178.391 86.0964 178.391 86.5547C178.391 87.0339 178.294 87.4661 178.102 87.8516C177.909 88.2318 177.633 88.5573 177.273 88.8281C176.919 89.0938 176.492 89.2995 175.992 89.4453C175.497 89.5859 174.945 89.6562 174.336 89.6562C173.789 89.6562 173.25 89.5833 172.719 89.4375C172.193 89.2917 171.714 89.0703 171.281 88.7734C170.849 88.4714 170.505 88.0964 170.25 87.6484C169.995 87.1953 169.867 86.6667 169.867 86.0625H171.828C171.828 86.4323 171.891 86.7474 172.016 87.0078C172.146 87.2682 172.326 87.4818 172.555 87.6484C172.784 87.8099 173.049 87.9297 173.352 88.0078C173.659 88.0859 173.987 88.125 174.336 88.125C174.794 88.125 175.177 88.0599 175.484 87.9297C175.797 87.7995 176.031 87.6172 176.188 87.3828C176.344 87.1484 176.422 86.8776 176.422 86.5703ZM185.023 87.5078V81.0469H186.914V89.5H185.133L185.023 87.5078ZM185.289 85.75L185.922 85.7344C185.922 86.3021 185.859 86.8255 185.734 87.3047C185.609 87.7786 185.417 88.1927 185.156 88.5469C184.896 88.8958 184.562 89.1693 184.156 89.3672C183.75 89.5599 183.263 89.6562 182.695 89.6562C182.284 89.6562 181.906 89.5964 181.562 89.4766C181.219 89.3568 180.922 89.1719 180.672 88.9219C180.427 88.6719 180.237 88.3464 180.102 87.9453C179.966 87.5443 179.898 87.0651 179.898 86.5078V81.0469H181.781V86.5234C181.781 86.8307 181.818 87.0885 181.891 87.2969C181.964 87.5 182.062 87.6641 182.188 87.7891C182.312 87.9141 182.458 88.0026 182.625 88.0547C182.792 88.1068 182.969 88.1328 183.156 88.1328C183.693 88.1328 184.115 88.0286 184.422 87.8203C184.734 87.6068 184.956 87.3203 185.086 86.9609C185.221 86.6016 185.289 86.1979 185.289 85.75ZM190.734 82.6562V89.5H188.852V81.0469H190.648L190.734 82.6562ZM193.32 80.9922L193.305 82.7422C193.19 82.7214 193.065 82.7057 192.93 82.6953C192.799 82.6849 192.669 82.6797 192.539 82.6797C192.216 82.6797 191.932 82.7266 191.688 82.8203C191.443 82.9089 191.237 83.0391 191.07 83.2109C190.909 83.3776 190.784 83.5807 190.695 83.8203C190.607 84.0599 190.555 84.3281 190.539 84.625L190.109 84.6562C190.109 84.125 190.161 83.6328 190.266 83.1797C190.37 82.7266 190.526 82.3281 190.734 81.9844C190.948 81.6406 191.214 81.3724 191.531 81.1797C191.854 80.987 192.227 80.8906 192.648 80.8906C192.763 80.8906 192.885 80.901 193.016 80.9219C193.151 80.9427 193.253 80.9661 193.32 80.9922ZM198.766 81.0469V82.4219H194V81.0469H198.766ZM195.375 78.9766H197.258V87.1641C197.258 87.4245 197.294 87.625 197.367 87.7656C197.445 87.901 197.552 87.9922 197.688 88.0391C197.823 88.0859 197.982 88.1094 198.164 88.1094C198.294 88.1094 198.419 88.1016 198.539 88.0859C198.659 88.0703 198.755 88.0547 198.828 88.0391L198.836 89.4766C198.68 89.5234 198.497 89.5651 198.289 89.6016C198.086 89.638 197.852 89.6562 197.586 89.6562C197.154 89.6562 196.771 89.5807 196.438 89.4297C196.104 89.2734 195.844 89.0208 195.656 88.6719C195.469 88.3229 195.375 87.8594 195.375 87.2812V78.9766ZM202.234 81.0469V89.5H200.344V81.0469H202.234ZM200.219 78.8281C200.219 78.5417 200.312 78.3047 200.5 78.1172C200.693 77.9245 200.958 77.8281 201.297 77.8281C201.63 77.8281 201.893 77.9245 202.086 78.1172C202.279 78.3047 202.375 78.5417 202.375 78.8281C202.375 79.1094 202.279 79.3438 202.086 79.5312C201.893 79.7188 201.63 79.8125 201.297 79.8125C200.958 79.8125 200.693 79.7188 200.5 79.5312C200.312 79.3438 200.219 79.1094 200.219 78.8281ZM206.188 82.6562V89.5H204.305V81.0469H206.102L206.188 82.6562ZM208.773 80.9922L208.758 82.7422C208.643 82.7214 208.518 82.7057 208.383 82.6953C208.253 82.6849 208.122 82.6797 207.992 82.6797C207.669 82.6797 207.385 82.7266 207.141 82.8203C206.896 82.9089 206.69 83.0391 206.523 83.2109C206.362 83.3776 206.237 83.5807 206.148 83.8203C206.06 84.0599 206.008 84.3281 205.992 84.625L205.562 84.6562C205.562 84.125 205.615 83.6328 205.719 83.1797C205.823 82.7266 205.979 82.3281 206.188 81.9844C206.401 81.6406 206.667 81.3724 206.984 81.1797C207.307 80.987 207.68 80.8906 208.102 80.8906C208.216 80.8906 208.339 80.901 208.469 80.9219C208.604 80.9427 208.706 80.9661 208.773 80.9922ZM217.812 81.0469V82.4219H213.047V81.0469H217.812ZM214.422 78.9766H216.305V87.1641C216.305 87.4245 216.341 87.625 216.414 87.7656C216.492 87.901 216.599 87.9922 216.734 88.0391C216.87 88.0859 217.029 88.1094 217.211 88.1094C217.341 88.1094 217.466 88.1016 217.586 88.0859C217.706 88.0703 217.802 88.0547 217.875 88.0391L217.883 89.4766C217.727 89.5234 217.544 89.5651 217.336 89.6016C217.133 89.638 216.898 89.6562 216.633 89.6562C216.201 89.6562 215.818 89.5807 215.484 89.4297C215.151 89.2734 214.891 89.0208 214.703 88.6719C214.516 88.3229 214.422 87.8594 214.422 87.2812V78.9766ZM224.352 87.5078V81.0469H226.242V89.5H224.461L224.352 87.5078ZM224.617 85.75L225.25 85.7344C225.25 86.3021 225.188 86.8255 225.062 87.3047C224.938 87.7786 224.745 88.1927 224.484 88.5469C224.224 88.8958 223.891 89.1693 223.484 89.3672C223.078 89.5599 222.591 89.6562 222.023 89.6562C221.612 89.6562 221.234 89.5964 220.891 89.4766C220.547 89.3568 220.25 89.1719 220 88.9219C219.755 88.6719 219.565 88.3464 219.43 87.9453C219.294 87.5443 219.227 87.0651 219.227 86.5078V81.0469H221.109V86.5234C221.109 86.8307 221.146 87.0885 221.219 87.2969C221.292 87.5 221.391 87.6641 221.516 87.7891C221.641 87.9141 221.786 88.0026 221.953 88.0547C222.12 88.1068 222.297 88.1328 222.484 88.1328C223.021 88.1328 223.443 88.0286 223.75 87.8203C224.062 87.6068 224.284 87.3203 224.414 86.9609C224.549 86.6016 224.617 86.1979 224.617 85.75ZM234.047 82.6562V89.5H232.164V81.0469H233.961L234.047 82.6562ZM236.633 80.9922L236.617 82.7422C236.503 82.7214 236.378 82.7057 236.242 82.6953C236.112 82.6849 235.982 82.6797 235.852 82.6797C235.529 82.6797 235.245 82.7266 235 82.8203C234.755 82.9089 234.549 83.0391 234.383 83.2109C234.221 83.3776 234.096 83.5807 234.008 83.8203C233.919 84.0599 233.867 84.3281 233.852 84.625L233.422 84.6562C233.422 84.125 233.474 83.6328 233.578 83.1797C233.682 82.7266 233.839 82.3281 234.047 81.9844C234.26 81.6406 234.526 81.3724 234.844 81.1797C235.167 80.987 235.539 80.8906 235.961 80.8906C236.076 80.8906 236.198 80.901 236.328 80.9219C236.464 80.9427 236.565 80.9661 236.633 80.9922ZM241.383 89.6562C240.758 89.6562 240.193 89.5547 239.688 89.3516C239.188 89.1432 238.76 88.8542 238.406 88.4844C238.057 88.1146 237.789 87.6797 237.602 87.1797C237.414 86.6797 237.32 86.1406 237.32 85.5625V85.25C237.32 84.5885 237.417 83.9896 237.609 83.4531C237.802 82.9167 238.07 82.4583 238.414 82.0781C238.758 81.6927 239.164 81.3984 239.633 81.1953C240.102 80.9922 240.609 80.8906 241.156 80.8906C241.76 80.8906 242.289 80.9922 242.742 81.1953C243.195 81.3984 243.57 81.6849 243.867 82.0547C244.169 82.4193 244.393 82.8542 244.539 83.3594C244.69 83.8646 244.766 84.4219 244.766 85.0312V85.8359H238.234V84.4844H242.906V84.3359C242.896 83.9974 242.828 83.6797 242.703 83.3828C242.583 83.0859 242.398 82.8464 242.148 82.6641C241.898 82.4818 241.565 82.3906 241.148 82.3906C240.836 82.3906 240.557 82.4583 240.312 82.5938C240.073 82.724 239.872 82.9141 239.711 83.1641C239.549 83.4141 239.424 83.7161 239.336 84.0703C239.253 84.4193 239.211 84.8125 239.211 85.25V85.5625C239.211 85.9323 239.26 86.276 239.359 86.5938C239.464 86.9062 239.615 87.1797 239.812 87.4141C240.01 87.6484 240.25 87.8333 240.531 87.9688C240.812 88.099 241.133 88.1641 241.492 88.1641C241.945 88.1641 242.349 88.0729 242.703 87.8906C243.057 87.7083 243.365 87.4505 243.625 87.1172L244.617 88.0781C244.435 88.3438 244.198 88.599 243.906 88.8438C243.615 89.0833 243.258 89.2786 242.836 89.4297C242.419 89.5807 241.935 89.6562 241.383 89.6562ZM249.688 88.1562C249.995 88.1562 250.271 88.0964 250.516 87.9766C250.766 87.8516 250.966 87.6797 251.117 87.4609C251.273 87.2422 251.359 86.9896 251.375 86.7031H253.148C253.138 87.25 252.977 87.7474 252.664 88.1953C252.352 88.6432 251.938 89 251.422 89.2656C250.906 89.526 250.336 89.6562 249.711 89.6562C249.065 89.6562 248.503 89.5469 248.023 89.3281C247.544 89.1042 247.146 88.7969 246.828 88.4062C246.51 88.0156 246.271 87.5651 246.109 87.0547C245.953 86.5443 245.875 85.9974 245.875 85.4141V85.1406C245.875 84.5573 245.953 84.0104 246.109 83.5C246.271 82.9844 246.51 82.5312 246.828 82.1406C247.146 81.75 247.544 81.4453 248.023 81.2266C248.503 81.0026 249.062 80.8906 249.703 80.8906C250.38 80.8906 250.974 81.026 251.484 81.2969C251.995 81.5625 252.396 81.9349 252.688 82.4141C252.984 82.888 253.138 83.4401 253.148 84.0703H251.375C251.359 83.7578 251.281 83.4766 251.141 83.2266C251.005 82.9714 250.812 82.7682 250.562 82.6172C250.318 82.4661 250.023 82.3906 249.68 82.3906C249.299 82.3906 248.984 82.4688 248.734 82.625C248.484 82.776 248.289 82.9844 248.148 83.25C248.008 83.5104 247.906 83.8047 247.844 84.1328C247.786 84.4557 247.758 84.7917 247.758 85.1406V85.4141C247.758 85.763 247.786 86.1016 247.844 86.4297C247.901 86.7578 248 87.0521 248.141 87.3125C248.286 87.5677 248.484 87.7734 248.734 87.9297C248.984 88.0807 249.302 88.1562 249.688 88.1562ZM258.32 89.6562C257.695 89.6562 257.13 89.5547 256.625 89.3516C256.125 89.1432 255.698 88.8542 255.344 88.4844C254.995 88.1146 254.727 87.6797 254.539 87.1797C254.352 86.6797 254.258 86.1406 254.258 85.5625V85.25C254.258 84.5885 254.354 83.9896 254.547 83.4531C254.74 82.9167 255.008 82.4583 255.352 82.0781C255.695 81.6927 256.102 81.3984 256.57 81.1953C257.039 80.9922 257.547 80.8906 258.094 80.8906C258.698 80.8906 259.227 80.9922 259.68 81.1953C260.133 81.3984 260.508 81.6849 260.805 82.0547C261.107 82.4193 261.331 82.8542 261.477 83.3594C261.628 83.8646 261.703 84.4219 261.703 85.0312V85.8359H255.172V84.4844H259.844V84.3359C259.833 83.9974 259.766 83.6797 259.641 83.3828C259.521 83.0859 259.336 82.8464 259.086 82.6641C258.836 82.4818 258.503 82.3906 258.086 82.3906C257.773 82.3906 257.495 82.4583 257.25 82.5938C257.01 82.724 256.81 82.9141 256.648 83.1641C256.487 83.4141 256.362 83.7161 256.273 84.0703C256.19 84.4193 256.148 84.8125 256.148 85.25V85.5625C256.148 85.9323 256.198 86.276 256.297 86.5938C256.401 86.9062 256.552 87.1797 256.75 87.4141C256.948 87.6484 257.188 87.8333 257.469 87.9688C257.75 88.099 258.07 88.1641 258.43 88.1641C258.883 88.1641 259.286 88.0729 259.641 87.8906C259.995 87.7083 260.302 87.4505 260.562 87.1172L261.555 88.0781C261.372 88.3438 261.135 88.599 260.844 88.8438C260.552 89.0833 260.195 89.2786 259.773 89.4297C259.357 89.5807 258.872 89.6562 258.32 89.6562ZM267.047 81.0469V82.4219H262.281V81.0469H267.047ZM263.656 78.9766H265.539V87.1641C265.539 87.4245 265.576 87.625 265.648 87.7656C265.727 87.901 265.833 87.9922 265.969 88.0391C266.104 88.0859 266.263 88.1094 266.445 88.1094C266.576 88.1094 266.701 88.1016 266.82 88.0859C266.94 88.0703 267.036 88.0547 267.109 88.0391L267.117 89.4766C266.961 89.5234 266.779 89.5651 266.57 89.6016C266.367 89.638 266.133 89.6562 265.867 89.6562C265.435 89.6562 265.052 89.5807 264.719 89.4297C264.385 89.2734 264.125 89.0208 263.938 88.6719C263.75 88.3229 263.656 87.8594 263.656 87.2812V78.9766ZM273.266 87.8047V83.7734C273.266 83.4714 273.211 83.2109 273.102 82.9922C272.992 82.7734 272.826 82.6042 272.602 82.4844C272.383 82.3646 272.107 82.3047 271.773 82.3047C271.466 82.3047 271.201 82.3568 270.977 82.4609C270.753 82.5651 270.578 82.7057 270.453 82.8828C270.328 83.0599 270.266 83.2604 270.266 83.4844H268.391C268.391 83.151 268.471 82.8281 268.633 82.5156C268.794 82.2031 269.029 81.9245 269.336 81.6797C269.643 81.4349 270.01 81.2422 270.438 81.1016C270.865 80.9609 271.344 80.8906 271.875 80.8906C272.51 80.8906 273.073 80.9974 273.562 81.2109C274.057 81.4245 274.445 81.7474 274.727 82.1797C275.013 82.6068 275.156 83.1432 275.156 83.7891V87.5469C275.156 87.9323 275.182 88.2786 275.234 88.5859C275.292 88.888 275.372 89.151 275.477 89.375V89.5H273.547C273.458 89.2969 273.388 89.0391 273.336 88.7266C273.289 88.4089 273.266 88.1016 273.266 87.8047ZM273.539 84.3594L273.555 85.5234H272.203C271.854 85.5234 271.547 85.5573 271.281 85.625C271.016 85.6875 270.794 85.7812 270.617 85.9062C270.44 86.0312 270.307 86.1823 270.219 86.3594C270.13 86.5365 270.086 86.737 270.086 86.9609C270.086 87.1849 270.138 87.3906 270.242 87.5781C270.346 87.7604 270.497 87.9036 270.695 88.0078C270.898 88.112 271.143 88.1641 271.43 88.1641C271.815 88.1641 272.151 88.0859 272.438 87.9297C272.729 87.7682 272.958 87.5729 273.125 87.3438C273.292 87.1094 273.38 86.888 273.391 86.6797L274 87.5156C273.938 87.7292 273.831 87.9583 273.68 88.2031C273.529 88.4479 273.331 88.6823 273.086 88.9062C272.846 89.125 272.557 89.3047 272.219 89.4453C271.885 89.5859 271.5 89.6562 271.062 89.6562C270.51 89.6562 270.018 89.5469 269.586 89.3281C269.154 89.1042 268.815 88.8047 268.57 88.4297C268.326 88.0495 268.203 87.6198 268.203 87.1406C268.203 86.6927 268.286 86.2969 268.453 85.9531C268.625 85.6042 268.875 85.3125 269.203 85.0781C269.536 84.8438 269.943 84.6667 270.422 84.5469C270.901 84.4219 271.448 84.3594 272.062 84.3594H273.539ZM285.875 87.8047V83.7734C285.875 83.4714 285.82 83.2109 285.711 82.9922C285.602 82.7734 285.435 82.6042 285.211 82.4844C284.992 82.3646 284.716 82.3047 284.383 82.3047C284.076 82.3047 283.81 82.3568 283.586 82.4609C283.362 82.5651 283.188 82.7057 283.062 82.8828C282.938 83.0599 282.875 83.2604 282.875 83.4844H281C281 83.151 281.081 82.8281 281.242 82.5156C281.404 82.2031 281.638 81.9245 281.945 81.6797C282.253 81.4349 282.62 81.2422 283.047 81.1016C283.474 80.9609 283.953 80.8906 284.484 80.8906C285.12 80.8906 285.682 80.9974 286.172 81.2109C286.667 81.4245 287.055 81.7474 287.336 82.1797C287.622 82.6068 287.766 83.1432 287.766 83.7891V87.5469C287.766 87.9323 287.792 88.2786 287.844 88.5859C287.901 88.888 287.982 89.151 288.086 89.375V89.5H286.156C286.068 89.2969 285.997 89.0391 285.945 88.7266C285.898 88.4089 285.875 88.1016 285.875 87.8047ZM286.148 84.3594L286.164 85.5234H284.812C284.464 85.5234 284.156 85.5573 283.891 85.625C283.625 85.6875 283.404 85.7812 283.227 85.9062C283.049 86.0312 282.917 86.1823 282.828 86.3594C282.74 86.5365 282.695 86.737 282.695 86.9609C282.695 87.1849 282.747 87.3906 282.852 87.5781C282.956 87.7604 283.107 87.9036 283.305 88.0078C283.508 88.112 283.753 88.1641 284.039 88.1641C284.424 88.1641 284.76 88.0859 285.047 87.9297C285.339 87.7682 285.568 87.5729 285.734 87.3438C285.901 87.1094 285.99 86.888 286 86.6797L286.609 87.5156C286.547 87.7292 286.44 87.9583 286.289 88.2031C286.138 88.4479 285.94 88.6823 285.695 88.9062C285.456 89.125 285.167 89.3047 284.828 89.4453C284.495 89.5859 284.109 89.6562 283.672 89.6562C283.12 89.6562 282.628 89.5469 282.195 89.3281C281.763 89.1042 281.424 88.8047 281.18 88.4297C280.935 88.0495 280.812 87.6198 280.812 87.1406C280.812 86.6927 280.896 86.2969 281.062 85.9531C281.234 85.6042 281.484 85.3125 281.812 85.0781C282.146 84.8438 282.552 84.6667 283.031 84.5469C283.51 84.4219 284.057 84.3594 284.672 84.3594H286.148ZM291.594 77.5V89.5H289.719V77.5H291.594ZM291.266 84.9609L290.656 84.9531C290.661 84.3698 290.742 83.8307 290.898 83.3359C291.06 82.8411 291.284 82.4115 291.57 82.0469C291.862 81.6771 292.211 81.3932 292.617 81.1953C293.023 80.9922 293.474 80.8906 293.969 80.8906C294.385 80.8906 294.76 80.9479 295.094 81.0625C295.432 81.1771 295.724 81.362 295.969 81.6172C296.214 81.8672 296.398 82.1953 296.523 82.6016C296.654 83.0026 296.719 83.4922 296.719 84.0703V89.5H294.828V84.0547C294.828 83.6484 294.768 83.3255 294.648 83.0859C294.534 82.8464 294.365 82.6745 294.141 82.5703C293.917 82.4609 293.643 82.4062 293.32 82.4062C292.982 82.4062 292.682 82.474 292.422 82.6094C292.167 82.7448 291.953 82.9297 291.781 83.1641C291.609 83.3984 291.479 83.6693 291.391 83.9766C291.307 84.2839 291.266 84.612 291.266 84.9609ZM298.266 85.3672V85.1875C298.266 84.5781 298.354 84.013 298.531 83.4922C298.708 82.9661 298.964 82.5104 299.297 82.125C299.635 81.7344 300.047 81.4323 300.531 81.2188C301.021 81 301.573 80.8906 302.188 80.8906C302.807 80.8906 303.359 81 303.844 81.2188C304.333 81.4323 304.747 81.7344 305.086 82.125C305.424 82.5104 305.682 82.9661 305.859 83.4922C306.036 84.013 306.125 84.5781 306.125 85.1875V85.3672C306.125 85.9766 306.036 86.5417 305.859 87.0625C305.682 87.5833 305.424 88.0391 305.086 88.4297C304.747 88.8151 304.336 89.1172 303.852 89.3359C303.367 89.5495 302.818 89.6562 302.203 89.6562C301.583 89.6562 301.029 89.5495 300.539 89.3359C300.055 89.1172 299.643 88.8151 299.305 88.4297C298.966 88.0391 298.708 87.5833 298.531 87.0625C298.354 86.5417 298.266 85.9766 298.266 85.3672ZM300.148 85.1875V85.3672C300.148 85.7474 300.188 86.1068 300.266 86.4453C300.344 86.7839 300.466 87.0807 300.633 87.3359C300.799 87.5911 301.013 87.7917 301.273 87.9375C301.534 88.0833 301.844 88.1562 302.203 88.1562C302.552 88.1562 302.854 88.0833 303.109 87.9375C303.37 87.7917 303.583 87.5911 303.75 87.3359C303.917 87.0807 304.039 86.7839 304.117 86.4453C304.201 86.1068 304.242 85.7474 304.242 85.3672V85.1875C304.242 84.8125 304.201 84.4583 304.117 84.125C304.039 83.7865 303.914 83.487 303.742 83.2266C303.576 82.9661 303.362 82.763 303.102 82.6172C302.846 82.4661 302.542 82.3906 302.188 82.3906C301.833 82.3906 301.526 82.4661 301.266 82.6172C301.01 82.763 300.799 82.9661 300.633 83.2266C300.466 83.487 300.344 83.7865 300.266 84.125C300.188 84.4583 300.148 84.8125 300.148 85.1875ZM309.594 82.6562V89.5H307.711V81.0469H309.508L309.594 82.6562ZM312.18 80.9922L312.164 82.7422C312.049 82.7214 311.924 82.7057 311.789 82.6953C311.659 82.6849 311.529 82.6797 311.398 82.6797C311.076 82.6797 310.792 82.7266 310.547 82.8203C310.302 82.9089 310.096 83.0391 309.93 83.2109C309.768 83.3776 309.643 83.5807 309.555 83.8203C309.466 84.0599 309.414 84.3281 309.398 84.625L308.969 84.6562C308.969 84.125 309.021 83.6328 309.125 83.1797C309.229 82.7266 309.385 82.3281 309.594 81.9844C309.807 81.6406 310.073 81.3724 310.391 81.1797C310.714 80.987 311.086 80.8906 311.508 80.8906C311.622 80.8906 311.745 80.901 311.875 80.9219C312.01 80.9427 312.112 80.9661 312.18 80.9922ZM317.844 87.8047V83.7734C317.844 83.4714 317.789 83.2109 317.68 82.9922C317.57 82.7734 317.404 82.6042 317.18 82.4844C316.961 82.3646 316.685 82.3047 316.352 82.3047C316.044 82.3047 315.779 82.3568 315.555 82.4609C315.331 82.5651 315.156 82.7057 315.031 82.8828C314.906 83.0599 314.844 83.2604 314.844 83.4844H312.969C312.969 83.151 313.049 82.8281 313.211 82.5156C313.372 82.2031 313.607 81.9245 313.914 81.6797C314.221 81.4349 314.589 81.2422 315.016 81.1016C315.443 80.9609 315.922 80.8906 316.453 80.8906C317.089 80.8906 317.651 80.9974 318.141 81.2109C318.635 81.4245 319.023 81.7474 319.305 82.1797C319.591 82.6068 319.734 83.1432 319.734 83.7891V87.5469C319.734 87.9323 319.76 88.2786 319.812 88.5859C319.87 88.888 319.951 89.151 320.055 89.375V89.5H318.125C318.036 89.2969 317.966 89.0391 317.914 88.7266C317.867 88.4089 317.844 88.1016 317.844 87.8047ZM318.117 84.3594L318.133 85.5234H316.781C316.432 85.5234 316.125 85.5573 315.859 85.625C315.594 85.6875 315.372 85.7812 315.195 85.9062C315.018 86.0312 314.885 86.1823 314.797 86.3594C314.708 86.5365 314.664 86.737 314.664 86.9609C314.664 87.1849 314.716 87.3906 314.82 87.5781C314.924 87.7604 315.076 87.9036 315.273 88.0078C315.477 88.112 315.721 88.1641 316.008 88.1641C316.393 88.1641 316.729 88.0859 317.016 87.9297C317.307 87.7682 317.536 87.5729 317.703 87.3438C317.87 87.1094 317.958 86.888 317.969 86.6797L318.578 87.5156C318.516 87.7292 318.409 87.9583 318.258 88.2031C318.107 88.4479 317.909 88.6823 317.664 88.9062C317.424 89.125 317.135 89.3047 316.797 89.4453C316.464 89.5859 316.078 89.6562 315.641 89.6562C315.089 89.6562 314.596 89.5469 314.164 89.3281C313.732 89.1042 313.393 88.8047 313.148 88.4297C312.904 88.0495 312.781 87.6198 312.781 87.1406C312.781 86.6927 312.865 86.2969 313.031 85.9531C313.203 85.6042 313.453 85.3125 313.781 85.0781C314.115 84.8438 314.521 84.6667 315 84.5469C315.479 84.4219 316.026 84.3594 316.641 84.3594H318.117ZM323.875 78.125L323.688 86.1484H322.078L321.883 78.125H323.875ZM321.828 88.6094C321.828 88.3229 321.922 88.0833 322.109 87.8906C322.302 87.6927 322.568 87.5938 322.906 87.5938C323.24 87.5938 323.503 87.6927 323.695 87.8906C323.888 88.0833 323.984 88.3229 323.984 88.6094C323.984 88.8854 323.888 89.1224 323.695 89.3203C323.503 89.513 323.24 89.6094 322.906 89.6094C322.568 89.6094 322.302 89.513 322.109 89.3203C321.922 89.1224 321.828 88.8854 321.828 88.6094Z" fill="white"/>
<path d="M332.888 84.8563H346.53L342.424 88.826C342.35 88.8952 342.291 88.978 342.25 89.0695C342.21 89.161 342.188 89.2594 342.187 89.359C342.187 89.4585 342.206 89.5573 342.245 89.6495C342.284 89.7417 342.342 89.8254 342.415 89.8958C342.488 89.9662 342.574 90.0219 342.669 90.0596C342.765 90.0973 342.867 90.1163 342.97 90.1155C343.073 90.1146 343.175 90.0939 343.269 90.0546C343.364 90.0153 343.45 89.9581 343.521 89.8865L348.952 84.6365C349.097 84.4959 349.179 84.3051 349.179 84.1063C349.179 83.9074 349.097 83.7167 348.952 83.576L343.521 78.326C343.375 78.1894 343.179 78.1138 342.976 78.1155C342.772 78.1172 342.578 78.1961 342.434 78.3351C342.29 78.4742 342.208 78.6623 342.207 78.859C342.205 79.0556 342.283 79.2451 342.424 79.3865L346.53 83.3563H332.888C332.682 83.3563 332.485 83.4353 332.339 83.5759C332.194 83.7166 332.112 83.9074 332.112 84.1063C332.112 84.3052 332.194 84.4959 332.339 84.6366C332.485 84.7772 332.682 84.8563 332.888 84.8563Z" fill="white"/>
<defs>
<clipPath id="clip0_2501_3823">
<rect width="33" height="27" fill="white" transform="translate(35.5 55)"/>
</clipPath>
</defs>
</svg>
