<svg width="194" height="49" viewBox="0 0 194 49" fill="none" xmlns="http://www.w3.org/2000/svg">
<rect x="0.5" y="0.859985" width="193" height="47" rx="7.5" fill="white"/>
<rect x="0.5" y="0.859985" width="193" height="47" rx="7.5" stroke="black"/>
<g clip-path="url(#clip0_2499_295)">
<path d="M54.3985 16.4595L63.9787 21.6965L61.3004 24.2964L53.4403 16.598C53.68 16.3591 54.0617 16.2766 54.3985 16.4595Z" fill="#0AE577"/>
<path d="M61.3004 24.2961L53.3491 32.0142C53.259 31.8854 53.2047 31.7277 53.2047 31.5513V17.1678C53.2047 16.9381 53.2966 16.7401 53.4403 16.598L61.3004 24.2961Z" fill="#40C3FF"/>
<path d="M67.5574 23.6522C68.1179 23.9579 68.1179 24.7617 67.5574 25.0682L64.0472 26.9863L61.3004 24.2964L63.9787 21.6965L67.5576 23.6522H67.5574Z" fill="#FFC826"/>
<path d="M64.0472 26.9861L54.3985 32.2599C54.0152 32.4696 53.5723 32.3319 53.3494 32.0142L61.3007 24.2961L64.0474 26.9861H64.0472Z" fill="#FF3945"/>
<path d="M82.278 27.2271C81.7567 27.4143 80.7276 27.7217 79.5112 27.7217C78.1477 27.7217 77.025 27.374 76.1428 26.5321C75.3675 25.7836 74.8864 24.5805 74.8864 23.1772C74.8997 20.4905 76.7445 18.5256 79.7653 18.5256C80.8079 18.5256 81.6233 18.7529 82.0107 18.9401L81.7302 19.8891C81.2489 19.6754 80.6475 19.5015 79.7385 19.5015C77.5463 19.5015 76.1163 20.865 76.1163 23.1237C76.1163 25.3824 77.4931 26.7594 79.5916 26.7594C80.3534 26.7594 80.8747 26.6525 81.142 26.5189V23.8322H79.3108V22.8964H82.2783V27.2271H82.278Z" fill="black"/>
<path d="M79.5112 27.8053C78.0606 27.8053 76.9401 27.4087 76.0852 26.5925C75.2701 25.8055 74.8028 24.5607 74.8028 23.177C74.8096 21.811 75.2717 20.638 76.1393 19.7842C77.0315 18.906 78.2855 18.4418 79.765 18.4418C80.4138 18.4418 81.4007 18.5524 82.047 18.8643L82.1108 18.8952L81.7829 20.0036L81.6958 19.9649C80.937 19.6278 80.2512 19.5845 79.7382 19.5845C77.5555 19.5845 76.1994 20.9404 76.1994 23.1234C76.1994 25.3063 77.499 26.6755 79.5911 26.6755C80.4508 26.6755 80.8815 26.5419 81.0579 26.4653V23.9155H79.2266V22.8128H82.3611V27.2858L82.3059 27.3056C81.6712 27.5334 80.671 27.805 79.5107 27.805L79.5112 27.8053ZM79.7653 18.609C78.3304 18.609 77.117 19.0564 76.2567 19.9032C75.4216 20.7251 74.9765 21.8573 74.97 23.1772C74.97 24.5156 75.4186 25.7165 76.201 26.4718C77.0229 27.2564 78.1058 27.6381 79.5112 27.6381C80.6142 27.6381 81.5703 27.387 82.1947 27.1682V22.98H79.3944V23.7486H81.2256V26.5705L81.1794 26.5935C80.8623 26.7521 80.2836 26.843 79.5916 26.843C78.5287 26.843 77.6348 26.5021 77.0072 25.8569C76.3698 25.2019 76.0327 24.2567 76.0327 23.1237C76.0327 21.9907 76.3833 21.0606 77.0467 20.4059C77.7016 19.7596 78.6325 19.4179 79.7385 19.4179C80.4876 19.4179 81.0901 19.5282 81.6766 19.775L81.9101 18.9855C81.501 18.8056 80.7222 18.6092 79.765 18.6092L79.7653 18.609Z" fill="black"/>
<path d="M89.9366 24.34C89.9366 26.7326 88.279 27.7752 86.7153 27.7752C84.9644 27.7752 83.6142 26.4921 83.6142 24.4471C83.6142 22.2817 85.031 21.0118 86.8222 21.0118C88.6134 21.0118 89.9366 22.3618 89.9366 24.3402V24.34ZM84.804 24.4068C84.804 25.8236 85.6194 26.893 86.7689 26.893C87.9184 26.893 88.7338 25.8371 88.7338 24.38C88.7338 23.2841 88.1857 21.8938 86.7957 21.8938C85.4057 21.8938 84.804 23.1769 84.804 24.4068Z" fill="black"/>
<path d="M86.7153 27.8588C84.8402 27.8588 83.5309 26.4558 83.5309 24.4471C83.5309 23.3904 83.8614 22.4954 84.4872 21.8589C85.077 21.2588 85.9064 20.9282 86.8225 20.9282C87.7385 20.9282 88.5574 21.2564 89.1374 21.877C89.715 22.4952 90.0205 23.3471 90.0205 24.3399C90.0205 25.4597 89.6569 26.3852 88.9692 27.0163C88.3772 27.5596 87.577 27.8588 86.7156 27.8588H86.7153ZM86.8222 21.0951C85.9513 21.0951 85.1643 21.4079 84.6062 21.9757C84.0119 22.5804 83.6978 23.4347 83.6978 24.4468C83.6978 25.4589 83.9989 26.2299 84.5684 26.8197C85.111 27.3818 85.8734 27.6913 86.7153 27.6913C87.5572 27.6913 88.295 27.4078 88.8561 26.893C89.5083 26.2943 89.8533 25.4113 89.8533 24.3397C89.8533 22.3989 88.6353 21.0949 86.8225 21.0949L86.8222 21.0951ZM86.7689 26.9766C86.1899 26.9766 85.6646 26.7125 85.2896 26.2326C84.9228 25.7632 84.7204 25.1148 84.7204 24.4068C84.7204 23.1144 85.3621 21.8104 86.7957 21.8104C87.4515 21.8104 87.9912 22.1115 88.3564 22.681C88.6494 23.1377 88.8174 23.7572 88.8174 24.3803C88.8174 25.1012 88.6118 25.7597 88.2382 26.2348C87.8619 26.7134 87.34 26.9769 86.7689 26.9769V26.9766ZM86.7954 21.9774C85.4774 21.9774 84.8873 23.1975 84.8873 24.4068C84.8873 25.7989 85.6786 26.8094 86.7686 26.8094C87.2872 26.8094 87.7626 26.5686 88.1064 26.1312C88.457 25.6856 88.6499 25.0636 88.6499 24.38C88.6499 23.7881 88.4917 23.2015 88.2154 22.7708C87.9833 22.4089 87.5483 21.9771 86.7954 21.9771V21.9774Z" fill="black"/>
<path d="M97.2746 24.34C97.2746 26.7326 95.617 27.7752 94.0533 27.7752C92.3024 27.7752 90.9522 26.4921 90.9522 24.4471C90.9522 22.2817 92.369 21.0118 94.1602 21.0118C95.9514 21.0118 97.2746 22.3618 97.2746 24.3402V24.34ZM92.1417 24.4068C92.1417 25.8236 92.9571 26.893 94.1066 26.893C95.2561 26.893 96.0715 25.8371 96.0715 24.38C96.0715 23.2841 95.5234 21.8938 94.1334 21.8938C92.7434 21.8938 92.1417 23.1769 92.1417 24.4068Z" fill="black"/>
<path d="M94.0533 27.8588C92.1783 27.8588 90.8689 26.4558 90.8689 24.4471C90.8689 23.3904 91.1995 22.4954 91.8252 21.8589C92.415 21.2588 93.2444 20.9282 94.1605 20.9282C95.0765 20.9282 95.8954 21.2564 96.4754 21.877C97.053 22.4952 97.3585 23.3471 97.3585 24.3399C97.3585 25.4597 96.9949 26.3852 96.3072 27.0163C95.7152 27.5596 94.915 27.8588 94.0536 27.8588H94.0533ZM94.1602 21.0951C93.2893 21.0951 92.5024 21.4079 91.9442 21.9757C91.3499 22.5804 91.0358 23.4347 91.0358 24.4468C91.0358 25.4589 91.3369 26.2299 91.9061 26.8197C92.4488 27.3818 93.2112 27.6913 94.0531 27.6913C94.895 27.6913 95.6327 27.4078 96.1938 26.893C96.8461 26.2943 97.191 25.4113 97.191 24.3397C97.191 22.3989 95.9731 21.0949 94.1602 21.0949V21.0951ZM94.1066 26.9766C93.5277 26.9766 93.0023 26.7125 92.6273 26.2326C92.2602 25.7632 92.0581 25.1148 92.0581 24.4068C92.0581 23.1144 92.6999 21.8104 94.1334 21.8104C94.7892 21.8104 95.3289 22.1115 95.6941 22.681C95.9871 23.1377 96.1551 23.7572 96.1551 24.3803C96.1551 25.1012 95.9495 25.7597 95.5759 26.2348C95.1996 26.7134 94.6777 26.9769 94.1066 26.9769V26.9766ZM94.1334 21.9774C92.8154 21.9774 92.2253 23.1975 92.2253 24.4068C92.2253 25.7989 93.0166 26.8094 94.1066 26.8094C94.6253 26.8094 95.1006 26.5686 95.4444 26.1312C95.795 25.6856 95.9879 25.0636 95.9879 24.38C95.9879 23.7881 95.8297 23.2015 95.5535 22.7708C95.3213 22.4089 94.8863 21.9771 94.1334 21.9771V21.9774Z" fill="black"/>
<path d="M104.332 21.1587C104.305 21.6265 104.278 22.1478 104.278 22.9364V26.6925C104.278 28.1761 103.984 29.0851 103.356 29.6465C102.728 30.2346 101.819 30.4218 101.003 30.4218C100.188 30.4218 99.3726 30.2346 98.8513 29.8873L99.1453 28.9918C99.5731 29.2591 100.241 29.4999 101.043 29.4999C102.246 29.4999 103.129 28.8717 103.129 27.2409V26.5191H103.102C102.741 27.1205 102.046 27.6018 101.043 27.6018C99.4394 27.6018 98.2899 26.2383 98.2899 24.4473C98.2899 22.2552 99.7202 21.0121 101.204 21.0121C102.327 21.0121 102.942 21.6002 103.222 22.1348H103.249L103.303 21.159H104.332V21.1587ZM103.115 23.7118C103.115 23.5113 103.102 23.3376 103.049 23.1772C102.835 22.4954 102.26 21.9341 101.405 21.9341C100.282 21.9341 99.4797 22.8831 99.4797 24.3802C99.4797 25.6501 100.121 26.706 101.391 26.706C102.113 26.706 102.768 26.2515 103.022 25.503C103.089 25.3025 103.115 25.0753 103.115 24.8748V23.712V23.7118Z" fill="black"/>
<path d="M101.004 30.5052C100.155 30.5052 99.3131 30.295 98.8053 29.9565L98.7525 29.9214L99.0996 28.8641L99.19 28.9206C99.4283 29.0694 100.086 29.416 101.044 29.416C102.698 29.416 103.045 28.2329 103.045 27.2406V26.7531C102.6 27.3483 101.883 27.6851 101.044 27.6851C100.248 27.6851 99.5227 27.3532 99.0022 26.7507C98.4893 26.1569 98.2066 25.3388 98.2066 24.4471C98.2066 23.3988 98.5258 22.5008 99.1294 21.8505C99.6816 21.2558 100.418 20.9282 101.204 20.9282C102.328 20.9282 102.912 21.5069 103.178 21.8994L103.223 21.0754H104.42L104.415 21.1636C104.387 21.6552 104.362 22.1608 104.362 22.9367V26.6925C104.362 28.1913 104.069 29.1217 103.412 29.7087C103.024 30.0712 102.291 30.5052 101.004 30.5052ZM98.9511 29.8516C99.4324 30.1483 100.228 30.338 101.004 30.338C102.236 30.338 102.932 29.9287 103.299 29.5854C103.919 29.0313 104.195 28.1396 104.195 26.6922V22.9364C104.195 22.2024 104.217 21.7093 104.244 21.2423H103.382L103.328 22.2181H103.172L103.148 22.1735C102.937 21.7709 102.403 21.0954 101.204 21.0954C100.466 21.0954 99.7722 21.4041 99.2519 21.9644C98.6773 22.5831 98.3738 23.4418 98.3738 24.4471C98.3738 25.2984 98.6419 26.0779 99.1288 26.6414C99.6172 27.2068 100.297 27.5179 101.044 27.5179C101.909 27.5179 102.633 27.1381 103.031 26.4758L103.055 26.4352H103.213V27.2406C103.213 28.0374 103.005 28.6433 102.596 29.0416C102.226 29.4008 101.704 29.5832 101.044 29.5832C100.383 29.5832 99.7105 29.4141 99.1924 29.1171L98.9511 29.8518V29.8516ZM101.391 26.7894C100.766 26.7894 100.248 26.5405 99.8928 26.0695C99.5728 25.6455 99.3964 25.0455 99.3964 24.38C99.3964 22.8669 100.203 21.8505 101.405 21.8505C102.374 21.8505 102.931 22.5228 103.128 23.152C103.191 23.3384 103.199 23.5397 103.199 23.7118V24.8745C103.199 25.1075 103.164 25.3398 103.101 25.5292C102.841 26.2948 102.17 26.7894 101.391 26.7894H101.391ZM101.405 22.0174C100.303 22.0174 99.5633 22.9667 99.5633 24.38C99.5633 25.0092 99.7275 25.5736 100.026 25.9688C100.349 26.3963 100.821 26.6225 101.391 26.6225C102.097 26.6225 102.706 26.1726 102.943 25.4762C103 25.3039 103.032 25.0901 103.032 24.8748V23.712C103.032 23.4872 103.013 23.3352 102.969 23.2037C102.789 22.6296 102.284 22.0177 101.404 22.0177L101.405 22.0174Z" fill="black"/>
<path d="M106.23 18.1379H107.406V27.628H106.23V18.1379Z" fill="black"/>
<path d="M107.489 27.7116H106.146V18.0543H107.489V27.7116ZM106.313 27.5444H107.322V18.2215H106.313V27.5447V27.5444Z" fill="black"/>
<path d="M110.039 24.6073C110.066 26.198 111.081 26.8527 112.258 26.8527C113.1 26.8527 113.608 26.7058 114.049 26.5186L114.249 27.3608C113.835 27.548 113.126 27.7617 112.097 27.7617C110.105 27.7617 108.916 26.4518 108.916 24.5002C108.916 22.5485 110.065 21.0116 111.95 21.0116C114.062 21.0116 114.623 22.8696 114.623 24.0592C114.623 24.2997 114.597 24.4869 114.583 24.6073H110.039ZM113.488 23.7651C113.501 23.0165 113.18 21.8538 111.857 21.8538C110.667 21.8538 110.146 22.9497 110.052 23.7651H113.488Z" fill="black"/>
<path d="M112.097 27.8453C111.107 27.8453 110.278 27.5255 109.699 26.9206C109.132 26.3273 108.833 25.4905 108.833 24.5004C108.833 23.5102 109.127 22.6134 109.662 21.9709C110.23 21.2888 111.021 20.9282 111.95 20.9282C112.879 20.9282 113.668 21.3137 114.149 22.0434C114.653 22.8079 114.707 23.7077 114.707 24.0594C114.707 24.2704 114.687 24.4384 114.673 24.5612C114.671 24.581 114.668 24.5997 114.666 24.6167L114.658 24.6911H110.125C110.152 25.3742 110.37 25.9034 110.773 26.2645C111.142 26.5949 111.655 26.7696 112.258 26.7696C113.125 26.7696 113.615 26.6122 114.016 26.442L114.107 26.4033L114.347 27.4086L114.284 27.437C113.871 27.6234 113.157 27.8455 112.097 27.8455L112.097 27.8453ZM111.95 21.0951C111.072 21.0951 110.326 21.4349 109.791 22.0775C109.28 22.6902 109 23.5505 109 24.5001C109 25.4497 109.283 26.2434 109.82 26.8048C110.366 27.3759 111.154 27.6778 112.097 27.6778C113.041 27.6778 113.746 27.4849 114.152 27.3118L113.99 26.6327C113.589 26.7945 113.09 26.9357 112.257 26.9357C111.613 26.9357 111.061 26.7464 110.661 26.3882C110.206 25.9797 109.968 25.3807 109.955 24.608L109.954 24.5231H114.509C114.523 24.4062 114.54 24.2499 114.54 24.0586C114.54 23.7223 114.488 22.8612 114.009 22.1345C113.554 21.4444 112.861 21.0943 111.95 21.0943V21.0951ZM113.569 23.8487H109.959L109.969 23.7556C110.083 22.7673 110.71 21.7701 111.857 21.7701C112.346 21.7701 112.743 21.9224 113.038 22.2227C113.549 22.7432 113.575 23.5362 113.571 23.7667L113.57 23.8487H113.569ZM110.148 23.6817H113.404C113.398 23.4006 113.336 22.7652 112.918 22.3399C112.656 22.0729 112.299 21.9373 111.856 21.9373C110.717 21.9373 110.255 22.9924 110.147 23.6817H110.148Z" fill="black"/>
<path d="M118.954 18.7261C119.515 18.6324 120.25 18.5524 121.186 18.5524C122.335 18.5524 123.178 18.8197 123.712 19.3009C124.207 19.7287 124.501 20.3836 124.501 21.1855C124.501 21.9874 124.26 22.6423 123.806 23.1103C123.191 23.7653 122.188 24.0994 121.052 24.0994C120.705 24.0994 120.384 24.0862 120.116 24.0193V27.6283H118.954V18.7261ZM120.117 23.07C120.371 23.1369 120.692 23.1636 121.079 23.1636C122.483 23.1636 123.338 22.4819 123.338 21.2388C123.338 19.9957 122.496 19.4744 121.213 19.4744C120.705 19.4744 120.317 19.5144 120.117 19.568V23.07Z" fill="black"/>
<path d="M120.2 27.7116H118.87V18.6552L118.94 18.6435C119.637 18.5275 120.392 18.4685 121.186 18.4685C122.332 18.4685 123.201 18.7277 123.768 19.2384C124.294 19.6932 124.585 20.385 124.585 21.1852C124.585 21.9855 124.343 22.6772 123.866 23.1682C123.252 23.8221 122.253 24.1828 121.052 24.1828C120.765 24.1828 120.466 24.1749 120.2 24.123V27.7113L120.2 27.7116ZM119.037 27.5444H120.033V23.9119L120.137 23.9379C120.411 24.0064 120.754 24.0156 121.052 24.0156C122.206 24.0156 123.162 23.6736 123.745 23.0527C124.192 22.5931 124.418 21.9652 124.418 21.1852C124.418 20.4053 124.148 19.7874 123.658 19.3637C123.121 18.8803 122.29 18.6354 121.186 18.6354C120.428 18.6354 119.706 18.6895 119.038 18.7967V27.5442L119.037 27.5444ZM121.079 23.2472C120.657 23.2472 120.345 23.2167 120.095 23.1509L120.033 23.1344V19.5038L120.095 19.4873C120.321 19.427 120.739 19.391 121.213 19.391C122.616 19.391 123.422 20.0647 123.422 21.2391C123.422 21.8689 123.203 22.385 122.789 22.7316C122.385 23.069 121.794 23.2472 121.079 23.2472ZM120.2 23.0046C120.425 23.0554 120.713 23.0801 121.079 23.0801C122.462 23.0801 123.255 22.4089 123.255 21.2388C123.255 20.155 122.53 19.558 121.213 19.558C120.795 19.558 120.424 19.5861 120.2 19.634V23.0046Z" fill="black"/>
<path d="M125.958 18.1379H127.134V27.628H125.958V18.1379Z" fill="black"/>
<path d="M127.217 27.7116H125.874V18.0543H127.217V27.7116ZM126.041 27.5444H127.051V18.2215H126.041V27.5447V27.5444Z" fill="black"/>
<path d="M132.694 27.6281L132.601 26.8127H132.561C132.2 27.3205 131.505 27.775 130.582 27.775C129.272 27.775 128.604 26.8528 128.604 25.917C128.604 24.353 129.994 23.4976 132.494 23.5111V23.3775C132.494 22.8429 132.347 21.8803 131.024 21.8803C130.422 21.8803 129.794 22.0675 129.34 22.3616L129.072 21.5862C129.607 21.2386 130.382 21.0114 131.198 21.0114C133.176 21.0114 133.657 22.3613 133.657 23.658V26.0774C133.657 26.6388 133.684 27.1869 133.764 27.6278H132.694L132.694 27.6281ZM132.52 24.3268C131.237 24.3 129.78 24.5272 129.78 25.7836C129.78 26.5454 130.288 26.9063 130.89 26.9063C131.732 26.9063 132.266 26.3717 132.454 25.8236C132.494 25.7032 132.52 25.5696 132.52 25.4495V24.3268Z" fill="black"/>
<path d="M130.582 27.8588C129.95 27.8588 129.418 27.65 129.041 27.2547C128.705 26.9019 128.521 26.4269 128.521 25.9172C128.521 25.3079 128.724 24.7964 129.126 24.3968C129.76 23.7662 130.895 23.4315 132.41 23.4275V23.3774C132.41 22.4395 131.944 21.9639 131.024 21.9639C130.45 21.9639 129.838 22.1386 129.385 22.4316L129.295 22.4895L128.972 21.5516L129.026 21.5161C129.601 21.1422 130.393 20.928 131.197 20.928C132.125 20.928 132.81 21.221 133.236 21.7991C133.57 22.2539 133.74 22.8791 133.74 23.6582V26.0776C133.74 26.7199 133.774 27.2223 133.845 27.6132L133.863 27.7117H132.619L132.536 26.9823C132.082 27.5336 131.364 27.8588 130.582 27.8588H130.582ZM132.437 23.5946C130.953 23.5946 129.85 23.9125 129.244 24.5153C128.875 24.8824 128.688 25.3539 128.688 25.9172C128.688 26.7718 129.281 27.6916 130.583 27.6916C131.366 27.6916 132.08 27.3451 132.493 26.7645L132.518 26.7293H132.675L132.769 27.5447H133.665C133.603 27.1595 133.573 26.6779 133.573 26.0776V23.6582C133.573 22.9156 133.415 22.3237 133.102 21.8981C132.71 21.3652 132.069 21.0952 131.198 21.0952C130.461 21.0952 129.71 21.2913 129.173 21.6216L129.385 22.2357C129.852 21.9598 130.457 21.7969 131.024 21.7969C131.632 21.7969 132.07 21.9939 132.325 22.3826C132.493 22.6375 132.578 22.9724 132.578 23.3777V23.5955L132.494 23.5949C132.475 23.5949 132.456 23.5949 132.438 23.5949L132.437 23.5946ZM130.89 26.9899C130.165 26.9899 129.697 26.5164 129.697 25.7835C129.697 25.4075 129.822 25.0942 130.069 24.8524C130.507 24.4233 131.332 24.2182 132.522 24.2431L132.604 24.2447V25.4494C132.604 25.5704 132.579 25.7127 132.533 25.8501C132.353 26.3763 131.815 26.9899 130.89 26.9899H130.89ZM132.33 24.4081C131.289 24.4081 130.568 24.5975 130.186 24.9717C129.972 25.1808 129.864 25.454 129.864 25.7835C129.864 26.2859 130.133 26.8229 130.89 26.8229C131.727 26.8229 132.213 26.2702 132.374 25.7968C132.415 25.6764 132.437 25.5528 132.437 25.4494V24.409C132.401 24.4084 132.365 24.4084 132.33 24.4084V24.4081Z" fill="black"/>
<path d="M135.875 21.1588L137.292 24.9817C137.439 25.4095 137.6 25.9175 137.707 26.3049H137.733C137.854 25.9173 137.987 25.4227 138.148 24.955L139.431 21.1588H140.674L138.91 25.7704C138.068 27.9893 137.493 29.1253 136.691 29.8205C136.116 30.3283 135.541 30.5291 135.247 30.5824L134.953 29.5933C135.247 29.4997 135.635 29.3127 135.982 29.0187C136.303 28.7646 136.704 28.3101 136.971 27.7087C137.025 27.5884 137.065 27.4948 137.065 27.4279C137.065 27.3611 137.038 27.2675 136.985 27.1206L134.592 21.1591H135.875V21.1588Z" fill="black"/>
<path d="M135.188 30.6778L134.85 29.5383L134.928 29.5134C135.092 29.4612 135.517 29.3024 135.929 28.9545L135.931 28.9529C136.314 28.6496 136.675 28.1719 136.896 27.6746C136.936 27.5834 136.982 27.4801 136.982 27.4279C136.982 27.3757 136.96 27.2964 136.907 27.1503L134.469 21.0754H135.934L137.371 24.9528C137.496 25.3172 137.624 25.7186 137.723 26.0544C137.742 25.9881 137.762 25.9196 137.783 25.8493C137.868 25.5623 137.963 25.2368 138.069 24.9279L139.372 21.0754H140.796L138.988 25.8003C138.204 27.8686 137.614 29.132 136.746 29.8838C136.07 30.4809 135.44 30.6326 135.263 30.6648L135.189 30.6784L135.188 30.6778ZM135.056 29.6465L135.305 30.4849C135.65 30.4054 136.159 30.179 136.635 29.7577C137.477 29.0286 138.056 27.7834 138.832 25.7406L140.553 21.2424H139.491L138.227 24.9817C138.122 25.2874 138.027 25.611 137.943 25.8964C137.897 26.0503 137.855 26.1959 137.813 26.3298L137.795 26.3885H137.643L137.626 26.3271C137.525 25.9608 137.367 25.4554 137.213 25.0088L135.817 21.2424H134.716L137.064 27.0919C137.126 27.2629 137.149 27.3538 137.149 27.4279C137.149 27.5096 137.109 27.6054 137.048 27.7425C136.715 28.4919 136.23 28.9291 136.036 29.0833C135.751 29.3232 135.399 29.5259 135.056 29.6468L135.056 29.6465Z" fill="black"/>
</g>
<defs>
<clipPath id="clip0_2499_295">
<rect width="87.5907" height="16" fill="white" transform="translate(53.2047 16.36)"/>
</clipPath>
</defs>
</svg>
