<svg width="48" height="49" viewBox="0 0 48 49" fill="none" xmlns="http://www.w3.org/2000/svg">
<rect y="0.359985" width="48" height="48" rx="24" fill="black"/>
<path d="M24.0027 20.2515C23.4635 20.2514 22.9297 20.3575 22.4316 20.5638C21.9334 20.7701 21.4808 21.0724 21.0996 21.4537C20.7184 21.8349 20.416 22.2875 20.2097 22.7856C20.0035 23.2837 19.8973 23.8176 19.8974 24.3567C19.8973 24.8959 20.0035 25.4297 20.2097 25.9278C20.416 26.426 20.7184 26.8786 21.0996 27.2598C21.4808 27.641 21.9334 27.9434 22.4316 28.1497C22.9297 28.3559 23.4635 28.4621 24.0027 28.462C24.5418 28.4621 25.0757 28.3559 25.5738 28.1497C26.0719 27.9434 26.5245 27.641 26.9057 27.2598C27.287 26.8786 27.5893 26.426 27.7956 25.9278C28.0019 25.4297 28.108 24.8959 28.1079 24.3567C28.108 23.8176 28.0019 23.2837 27.7956 22.7856C27.5893 22.2875 27.287 21.8349 26.9057 21.4537C26.5245 21.0724 26.0719 20.7701 25.5738 20.5638C25.0757 20.3575 24.5418 20.2514 24.0027 20.2515ZM24.0027 27.0213C23.4759 27.0212 22.9609 26.8649 22.5229 26.5721C22.0849 26.2793 21.7436 25.8633 21.542 25.3765C21.3405 24.8898 21.2878 24.3542 21.3906 23.8375C21.4934 23.3208 21.7471 22.8462 22.1196 22.4737C22.4922 22.1012 22.9668 21.8475 23.4835 21.7447C24.0002 21.6418 24.5357 21.6945 25.0225 21.8961C25.5092 22.0976 25.9253 22.439 26.2181 22.877C26.5108 23.3149 26.6672 23.8299 26.6673 24.3567C26.6675 24.7067 26.5987 25.0533 26.4648 25.3766C26.331 25.7 26.1347 25.9938 25.8872 26.2413C25.6398 26.4888 25.346 26.685 25.0226 26.8189C24.6992 26.9527 24.3526 27.0215 24.0027 27.0213Z" fill="white"/>
<path d="M27.2986 16.4102C25.8266 16.3416 22.1807 16.3449 20.7074 16.4102C19.4128 16.4709 18.2708 16.7836 17.3501 17.7042C15.8115 19.2429 16.0082 21.3162 16.0082 24.3568C16.0082 27.4687 15.8348 29.494 17.3501 31.0093C18.8948 32.5533 20.9981 32.3513 24.0027 32.3513C27.0853 32.3513 28.1493 32.3533 29.2393 31.9313C30.7212 31.356 31.8399 30.0313 31.9492 27.652C32.0185 26.1794 32.0145 22.5341 31.9492 21.0608C31.8172 18.2522 30.3099 16.5489 27.2986 16.4102ZM29.6286 29.9913C28.6199 31 27.2206 30.91 23.9833 30.91C20.6501 30.91 19.3134 30.9593 18.3381 29.9813C17.2148 28.8634 17.4181 27.0681 17.4181 24.3461C17.4181 20.6628 17.0401 18.0102 20.7367 17.8209C21.5861 17.7909 21.836 17.7809 23.974 17.7809L24.004 17.8009C27.5566 17.8009 30.3439 17.4289 30.5112 21.1248C30.5492 21.9681 30.5579 22.2215 30.5579 24.3561C30.5572 27.6507 30.6199 28.9954 29.6286 29.9913Z" fill="white"/>
<path d="M28.2706 21.0489C28.8004 21.0489 29.2299 20.6194 29.2299 20.0896C29.2299 19.5597 28.8004 19.1302 28.2706 19.1302C27.7408 19.1302 27.3113 19.5597 27.3113 20.0896C27.3113 20.6194 27.7408 21.0489 28.2706 21.0489Z" fill="white"/>
</svg>
