<svg width="48" height="49" viewBox="0 0 48 49" fill="none" xmlns="http://www.w3.org/2000/svg">
<rect y="0.359985" width="48" height="48" rx="24" fill="black"/>
<path d="M31.996 32.36L32 32.3593V26.4913C32 23.6207 31.382 21.4093 28.026 21.4093C26.4127 21.4093 25.33 22.2947 24.888 23.134H24.8413V21.6773H21.6593V32.3593H24.9727V27.07C24.9727 25.6773 25.2367 24.3307 26.9613 24.3307C28.6607 24.3307 28.686 25.92 28.686 27.1593V32.36H31.996ZM16.264 21.678H19.5813V32.36H16.264V21.678ZM17.9213 16.36C16.8607 16.36 16 17.2207 16 18.2813C16 19.342 16.8607 20.2207 17.9213 20.2207C18.982 20.2207 19.8427 19.342 19.8427 18.2813C19.8423 17.7719 19.6398 17.2834 19.2795 16.9231C18.9193 16.5629 18.4308 16.3603 17.9213 16.36Z" fill="white"/>
</svg>
