<svg width="602" height="214" viewBox="0 0 602 214" fill="none" xmlns="http://www.w3.org/2000/svg">
<g clip-path="url(#clip0_2499_252)">
<g clip-path="url(#clip1_2499_252)">
<path d="M611.97 -0.359863H-2V77.9301C-2 77.9301 0.189987 136.5 205.99 106.64C205.99 106.64 555.45 69.4901 611.97 -0.359863Z" fill="white"/>
<mask id="mask0_2499_252" style="mask-type:luminance" maskUnits="userSpaceOnUse" x="-13" y="0" width="625" height="214">
<path d="M611.533 0H-12.2175V213.36H611.533V0Z" fill="white"/>
</mask>
<g mask="url(#mask0_2499_252)">
<path opacity="0.5" d="M220.193 101.73C220.193 101.73 558.183 67.66 611.533 0L599.573 137.15C599.573 137.15 609.463 100.88 502.533 92.69C395.603 84.51 220.073 101.73 220.073 101.73H220.193Z" fill="#FF7A03"/>
<path opacity="0.2" d="M244.363 112.97C244.363 112.97 41.2425 145.7 -12.2175 213.36L-0.257468 76.21C-0.257468 76.21 -3.55747 114.07 103.743 115.9C191.873 117.37 244.483 112.85 244.483 112.85L244.363 112.97Z" fill="#FF7A03"/>
<path d="M-0.627469 78.29C1.57253 84.27 5.35253 89.53 10.3625 93.56C15.2425 97.47 20.8625 100.52 26.7225 102.6C38.8025 106.75 51.3825 109.32 64.0725 110.17C77.0125 111.39 89.9525 111.76 102.893 111.39C115.833 111.15 128.893 110.66 141.953 109.68C148.423 109.19 155.013 108.7 161.483 108.09C167.953 107.48 174.543 106.87 181.013 106.38C194.073 105.16 207.133 103.57 220.073 101.98C233.133 100.39 246.193 98.8 259.253 97.09C272.313 95.38 285.493 93.67 298.803 92.2C325.173 89.27 351.783 86.95 378.393 85.6C391.693 84.99 405.003 84.5 418.433 84.13C431.732 83.76 445.163 83.89 458.593 84.37C485.323 85.1 512.183 87.3 538.793 92.55C545.383 94.02 551.973 95.6 558.563 97.68C565.153 99.63 571.623 102.2 577.723 105.25C584.073 108.3 589.813 112.58 594.573 117.71C596.893 120.4 598.723 123.45 600.063 126.87C601.283 130.17 601.653 133.71 601.283 137.25L600.553 137.98L599.823 137.25C599.823 134.07 599.093 130.9 597.873 127.97C596.533 125.04 594.573 122.48 592.263 120.15C587.503 115.75 581.883 112.21 575.903 109.89C563.823 104.88 550.753 102.2 537.823 100.24C511.703 96.45 485.213 95.6 458.843 95.72C432.473 95.72 405.993 97.19 379.623 99.02C353.253 100.97 327.013 103.42 300.643 106.47C274.403 109.52 248.153 112.82 221.793 115.51C195.423 118.2 169.063 120.39 142.573 121.25C129.393 121.62 116.083 121.74 102.783 121.25C89.4725 120.88 76.2925 119.78 63.1125 117.83C50.0525 115.75 36.8725 112.7 24.7825 107.08C18.6825 104.39 13.0625 100.61 8.18253 95.97C3.30253 91.33 -0.237469 85.34 -1.82747 78.75L-1.33747 77.77L-0.35747 78.26H-0.597469L-0.627469 78.29Z" fill="#FF7A03"/>
</g>
<path d="M600.542 212.57V138.01C602.662 79.75 404.223 93.19 404.223 93.19C64.2525 113.35 -1.63749 191.93 -13.1775 212.57H600.542Z" fill="white"/>
</g>
</g>
<defs>
<clipPath id="clip0_2499_252">
<rect width="600.355" height="213.36" fill="white" transform="translate(0.82251)"/>
</clipPath>
<clipPath id="clip1_2499_252">
<rect width="600.355" height="213.36" fill="white" transform="translate(0.82251)"/>
</clipPath>
</defs>
</svg>
